<mxfile host="65bd71144e">
    <diagram id="76LSoUT8IJL4YJb2T3Nh" name="Page-1">
        <mxGraphModel dx="898" dy="680" grid="1" gridSize="12" guides="1" tooltips="1" connect="1" arrows="1" fold="1" page="1" pageScale="1" pageWidth="850" pageHeight="1100" background="#ffffff" math="0" shadow="0">
            <root>
                <mxCell id="0"/>
                <mxCell id="1" parent="0"/>
                <mxCell id="2" value="Actor" style="shape=umlActor;verticalLabelPosition=bottom;verticalAlign=top;html=1;outlineConnect=0;fillColor=#6a00ff;fontColor=#ffffff;strokeColor=#3700CC;" parent="1" vertex="1">
                    <mxGeometry x="370" y="360" width="30" height="60" as="geometry"/>
                </mxCell>
                <mxCell id="3" value="&lt;font color=&quot;#000000&quot;&gt;users&lt;/font&gt;" style="ellipse;shape=cloud;whiteSpace=wrap;html=1;fillColor=#d0cee2;strokeColor=#56517e;" parent="1" vertex="1">
                    <mxGeometry x="144" y="200" width="130" height="90" as="geometry"/>
                </mxCell>
                <mxCell id="4" value="comments" style="ellipse;shape=cloud;whiteSpace=wrap;html=1;fillColor=#d0cee2;strokeColor=#56517e;fontColor=#000000;" parent="1" vertex="1">
                    <mxGeometry x="300" y="140" width="130" height="90" as="geometry"/>
                </mxCell>
                <mxCell id="5" value="photo" style="ellipse;shape=cloud;whiteSpace=wrap;html=1;fillColor=#d0cee2;strokeColor=#56517e;fontColor=#000000;" parent="1" vertex="1">
                    <mxGeometry x="490" y="200" width="130" height="90" as="geometry"/>
                </mxCell>
                <mxCell id="zkukCE70dlWMzvdW5fFB-5" value="tags" style="ellipse;shape=cloud;whiteSpace=wrap;html=1;fillColor=#d0cee2;strokeColor=#56517e;fontColor=#000000;" parent="1" vertex="1">
                    <mxGeometry x="480" y="70" width="130" height="90" as="geometry"/>
                </mxCell>
            </root>
        </mxGraphModel>
    </diagram>
    <diagram id="IfT-H2WzHNCJ-KVY_oU5" name="Page-2_EntityRelationshipModel">
        <mxGraphModel dx="561" dy="515" grid="1" gridSize="12" guides="1" tooltips="1" connect="1" arrows="1" fold="1" page="1" pageScale="1" pageWidth="827" pageHeight="1169" background="#ffffff" math="0" shadow="0">
            <root>
                <mxCell id="3lwj_UioVCXuEEaLZo7M-0"/>
                <mxCell id="3lwj_UioVCXuEEaLZo7M-1" parent="3lwj_UioVCXuEEaLZo7M-0"/>
                <mxCell id="FKFFd5ONAhEGMleX-O_i-15" style="edgeStyle=none;html=1;fontColor=#000000;strokeColor=#000000;endArrow=none;endFill=0;" parent="3lwj_UioVCXuEEaLZo7M-1" source="luAGKo1j1Z5KjGnFhDmR-1" target="luAGKo1j1Z5KjGnFhDmR-27" edge="1">
                    <mxGeometry relative="1" as="geometry"/>
                </mxCell>
                <mxCell id="luAGKo1j1Z5KjGnFhDmR-1" value="&lt;font color=&quot;#000000&quot;&gt;user&lt;/font&gt;" style="rounded=1;whiteSpace=wrap;html=1;fillColor=#d0cee2;strokeColor=#56517e;" parent="3lwj_UioVCXuEEaLZo7M-1" vertex="1">
                    <mxGeometry x="208" y="335" width="120" height="60" as="geometry"/>
                </mxCell>
                <mxCell id="luAGKo1j1Z5KjGnFhDmR-2" value="" style="edgeStyle=none;html=1;fontColor=#000000;" parent="3lwj_UioVCXuEEaLZo7M-1" target="luAGKo1j1Z5KjGnFhDmR-1" edge="1">
                    <mxGeometry relative="1" as="geometry">
                        <mxPoint x="244.79957662849074" y="264.56337664561215" as="sourcePoint"/>
                    </mxGeometry>
                </mxCell>
                <mxCell id="luAGKo1j1Z5KjGnFhDmR-3" value="" style="edgeStyle=none;html=1;fontColor=#000000;" parent="3lwj_UioVCXuEEaLZo7M-1" target="luAGKo1j1Z5KjGnFhDmR-1" edge="1">
                    <mxGeometry relative="1" as="geometry">
                        <mxPoint x="244.79957662849074" y="264.56337664561215" as="sourcePoint"/>
                    </mxGeometry>
                </mxCell>
                <mxCell id="luAGKo1j1Z5KjGnFhDmR-4" value="" style="edgeStyle=none;html=1;fontColor=#000000;" parent="3lwj_UioVCXuEEaLZo7M-1" target="luAGKo1j1Z5KjGnFhDmR-1" edge="1">
                    <mxGeometry relative="1" as="geometry">
                        <mxPoint x="244.79957662849074" y="264.56337664561215" as="sourcePoint"/>
                    </mxGeometry>
                </mxCell>
                <mxCell id="luAGKo1j1Z5KjGnFhDmR-10" value="" style="edgeStyle=none;html=1;fontColor=#000000;strokeColor=#000000;endArrow=none;endFill=0;" parent="3lwj_UioVCXuEEaLZo7M-1" source="luAGKo1j1Z5KjGnFhDmR-12" target="luAGKo1j1Z5KjGnFhDmR-1" edge="1">
                    <mxGeometry relative="1" as="geometry"/>
                </mxCell>
                <mxCell id="luAGKo1j1Z5KjGnFhDmR-12" value="user_ID" style="ellipse;whiteSpace=wrap;html=1;fillColor=#f5f5f5;strokeColor=#666666;fontColor=#333333;" parent="3lwj_UioVCXuEEaLZo7M-1" vertex="1">
                    <mxGeometry x="88" y="285" width="110" height="40" as="geometry"/>
                </mxCell>
                <mxCell id="luAGKo1j1Z5KjGnFhDmR-13" style="edgeStyle=none;html=1;entryX=0;entryY=0.75;entryDx=0;entryDy=0;fontColor=#000000;strokeColor=#000000;endArrow=none;endFill=0;" parent="3lwj_UioVCXuEEaLZo7M-1" source="luAGKo1j1Z5KjGnFhDmR-14" target="luAGKo1j1Z5KjGnFhDmR-1" edge="1">
                    <mxGeometry relative="1" as="geometry"/>
                </mxCell>
                <mxCell id="luAGKo1j1Z5KjGnFhDmR-14" value="nickname" style="ellipse;whiteSpace=wrap;html=1;fillColor=#f5f5f5;strokeColor=#666666;fontColor=#333333;" parent="3lwj_UioVCXuEEaLZo7M-1" vertex="1">
                    <mxGeometry x="98" y="350" width="90" height="30" as="geometry"/>
                </mxCell>
                <mxCell id="luAGKo1j1Z5KjGnFhDmR-15" value="" style="edgeStyle=none;html=1;fontColor=#000000;strokeColor=#000000;endArrow=none;endFill=0;" parent="3lwj_UioVCXuEEaLZo7M-1" source="luAGKo1j1Z5KjGnFhDmR-24" target="luAGKo1j1Z5KjGnFhDmR-1" edge="1">
                    <mxGeometry relative="1" as="geometry"/>
                </mxCell>
                <mxCell id="luAGKo1j1Z5KjGnFhDmR-19" style="edgeStyle=none;html=1;entryX=1;entryY=0.25;entryDx=0;entryDy=0;fontColor=#000000;strokeColor=#000000;endArrow=none;endFill=0;" parent="3lwj_UioVCXuEEaLZo7M-1" source="luAGKo1j1Z5KjGnFhDmR-20" target="luAGKo1j1Z5KjGnFhDmR-1" edge="1">
                    <mxGeometry relative="1" as="geometry"/>
                </mxCell>
                <mxCell id="luAGKo1j1Z5KjGnFhDmR-20" value="full name" style="ellipse;whiteSpace=wrap;html=1;fillColor=#f5f5f5;strokeColor=#666666;fontColor=#333333;" parent="3lwj_UioVCXuEEaLZo7M-1" vertex="1">
                    <mxGeometry x="308" y="295" width="90" height="30" as="geometry"/>
                </mxCell>
                <mxCell id="JEmplLsJNLP9J43ikwDD-0" style="edgeStyle=none;html=1;entryX=0.658;entryY=-0.017;entryDx=0;entryDy=0;entryPerimeter=0;fontColor=#000000;strokeColor=#000000;endArrow=none;endFill=0;" parent="3lwj_UioVCXuEEaLZo7M-1" source="luAGKo1j1Z5KjGnFhDmR-22" target="luAGKo1j1Z5KjGnFhDmR-1" edge="1">
                    <mxGeometry relative="1" as="geometry"/>
                </mxCell>
                <mxCell id="luAGKo1j1Z5KjGnFhDmR-22" value="email&amp;nbsp;" style="ellipse;whiteSpace=wrap;html=1;fillColor=#f5f5f5;strokeColor=#666666;fontColor=#333333;" parent="3lwj_UioVCXuEEaLZo7M-1" vertex="1">
                    <mxGeometry x="278" y="235" width="90" height="30" as="geometry"/>
                </mxCell>
                <mxCell id="luAGKo1j1Z5KjGnFhDmR-24" value="password" style="ellipse;whiteSpace=wrap;html=1;fillColor=#f5f5f5;strokeColor=#666666;fontColor=#333333;" parent="3lwj_UioVCXuEEaLZo7M-1" vertex="1">
                    <mxGeometry x="198" y="275" width="90" height="30" as="geometry"/>
                </mxCell>
                <mxCell id="luAGKo1j1Z5KjGnFhDmR-25" value="" style="edgeStyle=none;html=1;fontColor=#000000;endArrow=none;" parent="3lwj_UioVCXuEEaLZo7M-1" target="luAGKo1j1Z5KjGnFhDmR-24" edge="1">
                    <mxGeometry relative="1" as="geometry">
                        <mxPoint x="253" y="275" as="sourcePoint"/>
                        <mxPoint x="263" y="335" as="targetPoint"/>
                    </mxGeometry>
                </mxCell>
                <mxCell id="FKFFd5ONAhEGMleX-O_i-17" style="edgeStyle=none;html=1;entryX=0;entryY=0.75;entryDx=0;entryDy=0;fontColor=#000000;strokeColor=#000000;endArrow=none;endFill=0;" parent="3lwj_UioVCXuEEaLZo7M-1" source="luAGKo1j1Z5KjGnFhDmR-26" target="luAGKo1j1Z5KjGnFhDmR-28" edge="1">
                    <mxGeometry relative="1" as="geometry"/>
                </mxCell>
                <mxCell id="FKFFd5ONAhEGMleX-O_i-19" style="edgeStyle=none;html=1;entryX=0.333;entryY=-0.05;entryDx=0;entryDy=0;entryPerimeter=0;fontColor=#000000;strokeColor=#000000;endArrow=none;endFill=0;" parent="3lwj_UioVCXuEEaLZo7M-1" source="luAGKo1j1Z5KjGnFhDmR-26" target="luAGKo1j1Z5KjGnFhDmR-29" edge="1">
                    <mxGeometry relative="1" as="geometry"/>
                </mxCell>
                <mxCell id="luAGKo1j1Z5KjGnFhDmR-26" value="&lt;font color=&quot;#000000&quot;&gt;post&lt;/font&gt;" style="rounded=1;whiteSpace=wrap;html=1;fillColor=#d0cee2;strokeColor=#56517e;" parent="3lwj_UioVCXuEEaLZo7M-1" vertex="1">
                    <mxGeometry x="528" y="325" width="120" height="60" as="geometry"/>
                </mxCell>
                <mxCell id="FKFFd5ONAhEGMleX-O_i-16" style="edgeStyle=none;html=1;exitX=1;exitY=0.5;exitDx=0;exitDy=0;entryX=-0.033;entryY=0.65;entryDx=0;entryDy=0;entryPerimeter=0;fontColor=#000000;strokeColor=#000000;endArrow=none;endFill=0;" parent="3lwj_UioVCXuEEaLZo7M-1" source="luAGKo1j1Z5KjGnFhDmR-27" target="luAGKo1j1Z5KjGnFhDmR-26" edge="1">
                    <mxGeometry relative="1" as="geometry"/>
                </mxCell>
                <mxCell id="luAGKo1j1Z5KjGnFhDmR-27" value="&lt;font color=&quot;#000000&quot;&gt;creates&lt;/font&gt;" style="rhombus;whiteSpace=wrap;html=1;fillColor=#d0cee2;strokeColor=#56517e;" parent="3lwj_UioVCXuEEaLZo7M-1" vertex="1">
                    <mxGeometry x="388" y="325" width="80" height="80" as="geometry"/>
                </mxCell>
                <mxCell id="MJsEbVEYOPXzggjrm57X-10" style="edgeStyle=none;html=1;exitX=1;exitY=0.5;exitDx=0;exitDy=0;fontColor=#000000;startArrow=none;startFill=0;endArrow=none;endFill=0;strokeColor=#000000;entryX=0.992;entryY=0.867;entryDx=0;entryDy=0;entryPerimeter=0;" parent="3lwj_UioVCXuEEaLZo7M-1" source="luAGKo1j1Z5KjGnFhDmR-28" target="luAGKo1j1Z5KjGnFhDmR-32" edge="1">
                    <mxGeometry relative="1" as="geometry">
                        <mxPoint x="641" y="170" as="targetPoint"/>
                        <Array as="points">
                            <mxPoint x="871" y="375"/>
                            <mxPoint x="871" y="280"/>
                            <mxPoint x="871" y="160"/>
                        </Array>
                    </mxGeometry>
                </mxCell>
                <mxCell id="luAGKo1j1Z5KjGnFhDmR-28" value="&lt;font color=&quot;#000000&quot;&gt;comments&lt;/font&gt;" style="rounded=1;whiteSpace=wrap;html=1;fillColor=#d0cee2;strokeColor=#56517e;" parent="3lwj_UioVCXuEEaLZo7M-1" vertex="1">
                    <mxGeometry x="718" y="345" width="120" height="60" as="geometry"/>
                </mxCell>
                <mxCell id="luAGKo1j1Z5KjGnFhDmR-29" value="&lt;font color=&quot;#000000&quot;&gt;images&lt;/font&gt;" style="rounded=1;whiteSpace=wrap;html=1;fillColor=#d0cee2;strokeColor=#56517e;" parent="3lwj_UioVCXuEEaLZo7M-1" vertex="1">
                    <mxGeometry x="548" y="495" width="120" height="60" as="geometry"/>
                </mxCell>
                <mxCell id="luAGKo1j1Z5KjGnFhDmR-32" value="&lt;font color=&quot;#000000&quot;&gt;tags&lt;/font&gt;" style="rounded=1;whiteSpace=wrap;html=1;fillColor=#d0cee2;strokeColor=#56517e;" parent="3lwj_UioVCXuEEaLZo7M-1" vertex="1">
                    <mxGeometry x="543" y="110" width="120" height="60" as="geometry"/>
                </mxCell>
                <mxCell id="FKFFd5ONAhEGMleX-O_i-7" style="edgeStyle=none;html=1;entryX=0.5;entryY=0;entryDx=0;entryDy=0;fontColor=#000000;strokeColor=#000000;exitX=0.589;exitY=0.967;exitDx=0;exitDy=0;exitPerimeter=0;endArrow=none;endFill=0;" parent="3lwj_UioVCXuEEaLZo7M-1" source="lIYjEHXdb8o60oEyiCle-0" target="luAGKo1j1Z5KjGnFhDmR-29" edge="1">
                    <mxGeometry relative="1" as="geometry"/>
                </mxCell>
                <mxCell id="lIYjEHXdb8o60oEyiCle-0" value="fk_post_ID" style="ellipse;whiteSpace=wrap;html=1;fillColor=#f5f5f5;strokeColor=#666666;fontColor=#333333;" parent="3lwj_UioVCXuEEaLZo7M-1" vertex="1">
                    <mxGeometry x="563" y="445" width="90" height="30" as="geometry"/>
                </mxCell>
                <mxCell id="FKFFd5ONAhEGMleX-O_i-6" style="edgeStyle=none;html=1;entryX=1;entryY=0.25;entryDx=0;entryDy=0;fontColor=#000000;strokeColor=#000000;endArrow=none;endFill=0;" parent="3lwj_UioVCXuEEaLZo7M-1" target="luAGKo1j1Z5KjGnFhDmR-28" edge="1">
                    <mxGeometry relative="1" as="geometry">
                        <mxPoint x="838" y="325" as="sourcePoint"/>
                    </mxGeometry>
                </mxCell>
                <mxCell id="lIYjEHXdb8o60oEyiCle-1" value="fk_post_ID" style="ellipse;whiteSpace=wrap;html=1;fillColor=#f5f5f5;strokeColor=#666666;fontColor=#333333;" parent="3lwj_UioVCXuEEaLZo7M-1" vertex="1">
                    <mxGeometry x="788" y="305" width="90" height="30" as="geometry"/>
                </mxCell>
                <mxCell id="FKFFd5ONAhEGMleX-O_i-12" style="edgeStyle=none;html=1;entryX=1;entryY=0.5;entryDx=0;entryDy=0;fontColor=#000000;strokeColor=#000000;endArrow=none;endFill=0;" parent="3lwj_UioVCXuEEaLZo7M-1" source="lIYjEHXdb8o60oEyiCle-2" target="luAGKo1j1Z5KjGnFhDmR-32" edge="1">
                    <mxGeometry relative="1" as="geometry"/>
                </mxCell>
                <mxCell id="lIYjEHXdb8o60oEyiCle-2" value="fk_post_ID" style="ellipse;whiteSpace=wrap;html=1;fillColor=#f5f5f5;strokeColor=#666666;fontColor=#333333;" parent="3lwj_UioVCXuEEaLZo7M-1" vertex="1">
                    <mxGeometry x="668" y="90" width="90" height="30" as="geometry"/>
                </mxCell>
                <mxCell id="lIYjEHXdb8o60oEyiCle-4" value="2&amp;nbsp; &amp;nbsp;holiday2.png&amp;nbsp; &amp;nbsp; 1" style="text;html=1;align=center;verticalAlign=middle;resizable=0;points=[];autosize=1;strokeColor=none;fillColor=none;fontColor=#000000;" parent="3lwj_UioVCXuEEaLZo7M-1" vertex="1">
                    <mxGeometry x="480" y="625" width="120" height="20" as="geometry"/>
                </mxCell>
                <mxCell id="lIYjEHXdb8o60oEyiCle-5" value="1&amp;nbsp; &amp;nbsp;holidaz.png&amp;nbsp; &amp;nbsp; 1" style="text;html=1;align=center;verticalAlign=middle;resizable=0;points=[];autosize=1;strokeColor=none;fillColor=none;fontColor=#000000;" parent="3lwj_UioVCXuEEaLZo7M-1" vertex="1">
                    <mxGeometry x="485" y="605" width="110" height="20" as="geometry"/>
                </mxCell>
                <mxCell id="lIYjEHXdb8o60oEyiCle-6" value="2&amp;nbsp; &amp;nbsp;awesome&amp;nbsp; &amp;nbsp; 1&amp;nbsp; &amp;nbsp; 1" style="text;html=1;align=center;verticalAlign=middle;resizable=0;points=[];autosize=1;strokeColor=none;fillColor=none;fontColor=#000000;" parent="3lwj_UioVCXuEEaLZo7M-1" vertex="1">
                    <mxGeometry x="270" y="625" width="120" height="20" as="geometry"/>
                </mxCell>
                <mxCell id="lIYjEHXdb8o60oEyiCle-7" value="1&amp;nbsp; &amp;nbsp;wow great&amp;nbsp; &amp;nbsp; 1&amp;nbsp; &amp;nbsp; 1" style="text;html=1;align=center;verticalAlign=middle;resizable=0;points=[];autosize=1;strokeColor=none;fillColor=none;fontColor=#000000;" parent="3lwj_UioVCXuEEaLZo7M-1" vertex="1">
                    <mxGeometry x="265" y="605" width="130" height="20" as="geometry"/>
                </mxCell>
                <mxCell id="FKFFd5ONAhEGMleX-O_i-11" style="edgeStyle=none;html=1;entryX=0;entryY=0.5;entryDx=0;entryDy=0;fontColor=#000000;strokeColor=#000000;endArrow=none;endFill=0;" parent="3lwj_UioVCXuEEaLZo7M-1" source="lIYjEHXdb8o60oEyiCle-10" target="luAGKo1j1Z5KjGnFhDmR-32" edge="1">
                    <mxGeometry relative="1" as="geometry"/>
                </mxCell>
                <mxCell id="lIYjEHXdb8o60oEyiCle-10" value="fk_user_ID" style="ellipse;whiteSpace=wrap;html=1;fillColor=#f5f5f5;strokeColor=#666666;fontColor=#333333;" parent="3lwj_UioVCXuEEaLZo7M-1" vertex="1">
                    <mxGeometry x="453" y="90" width="90" height="30" as="geometry"/>
                </mxCell>
                <mxCell id="FKFFd5ONAhEGMleX-O_i-14" style="edgeStyle=none;html=1;entryX=0;entryY=0.75;entryDx=0;entryDy=0;fontColor=#000000;strokeColor=#000000;endArrow=none;endFill=0;" parent="3lwj_UioVCXuEEaLZo7M-1" source="lIYjEHXdb8o60oEyiCle-11" target="luAGKo1j1Z5KjGnFhDmR-32" edge="1">
                    <mxGeometry relative="1" as="geometry"/>
                </mxCell>
                <mxCell id="lIYjEHXdb8o60oEyiCle-11" value="tags_ID" style="ellipse;whiteSpace=wrap;html=1;fillColor=#f5f5f5;strokeColor=#666666;fontColor=#333333;" parent="3lwj_UioVCXuEEaLZo7M-1" vertex="1">
                    <mxGeometry x="378" y="115" width="110" height="40" as="geometry"/>
                </mxCell>
                <mxCell id="FKFFd5ONAhEGMleX-O_i-1" style="edgeStyle=none;html=1;entryX=0.192;entryY=0.017;entryDx=0;entryDy=0;entryPerimeter=0;fontColor=#000000;strokeColor=#000000;endArrow=none;endFill=0;" parent="3lwj_UioVCXuEEaLZo7M-1" source="lIYjEHXdb8o60oEyiCle-12" target="luAGKo1j1Z5KjGnFhDmR-26" edge="1">
                    <mxGeometry relative="1" as="geometry"/>
                </mxCell>
                <mxCell id="lIYjEHXdb8o60oEyiCle-12" value="post_ID" style="ellipse;whiteSpace=wrap;html=1;fillColor=#f5f5f5;strokeColor=#666666;fontColor=#333333;" parent="3lwj_UioVCXuEEaLZo7M-1" vertex="1">
                    <mxGeometry x="468" y="275" width="90" height="30" as="geometry"/>
                </mxCell>
                <mxCell id="FKFFd5ONAhEGMleX-O_i-5" style="edgeStyle=none;html=1;entryX=0.392;entryY=-0.033;entryDx=0;entryDy=0;entryPerimeter=0;fontColor=#000000;strokeColor=#000000;endArrow=none;endFill=0;" parent="3lwj_UioVCXuEEaLZo7M-1" source="lIYjEHXdb8o60oEyiCle-13" target="luAGKo1j1Z5KjGnFhDmR-28" edge="1">
                    <mxGeometry relative="1" as="geometry"/>
                </mxCell>
                <mxCell id="lIYjEHXdb8o60oEyiCle-13" value="comments_ID" style="ellipse;whiteSpace=wrap;html=1;fillColor=#f5f5f5;strokeColor=#666666;fontColor=#333333;" parent="3lwj_UioVCXuEEaLZo7M-1" vertex="1">
                    <mxGeometry x="733" y="265" width="90" height="30" as="geometry"/>
                </mxCell>
                <mxCell id="FKFFd5ONAhEGMleX-O_i-8" style="edgeStyle=none;html=1;entryX=0;entryY=0.383;entryDx=0;entryDy=0;entryPerimeter=0;fontColor=#000000;strokeColor=#000000;endArrow=none;endFill=0;" parent="3lwj_UioVCXuEEaLZo7M-1" source="lIYjEHXdb8o60oEyiCle-14" target="luAGKo1j1Z5KjGnFhDmR-29" edge="1">
                    <mxGeometry relative="1" as="geometry"/>
                </mxCell>
                <mxCell id="lIYjEHXdb8o60oEyiCle-14" value="images_ID" style="ellipse;whiteSpace=wrap;html=1;fillColor=#f5f5f5;strokeColor=#666666;fontColor=#333333;" parent="3lwj_UioVCXuEEaLZo7M-1" vertex="1">
                    <mxGeometry x="468" y="465" width="90" height="30" as="geometry"/>
                </mxCell>
                <mxCell id="FKFFd5ONAhEGMleX-O_i-2" style="edgeStyle=none;html=1;entryX=0.667;entryY=0;entryDx=0;entryDy=0;entryPerimeter=0;fontColor=#000000;strokeColor=#000000;endArrow=none;endFill=0;" parent="3lwj_UioVCXuEEaLZo7M-1" target="luAGKo1j1Z5KjGnFhDmR-26" edge="1">
                    <mxGeometry relative="1" as="geometry">
                        <mxPoint x="608" y="295" as="sourcePoint"/>
                    </mxGeometry>
                </mxCell>
                <mxCell id="rjyYE7SJsVeIMu5HUs0N-0" value="text" style="ellipse;whiteSpace=wrap;html=1;fillColor=#f5f5f5;strokeColor=#666666;fontColor=#333333;" parent="3lwj_UioVCXuEEaLZo7M-1" vertex="1">
                    <mxGeometry x="563" y="275" width="80" height="25" as="geometry"/>
                </mxCell>
                <mxCell id="FKFFd5ONAhEGMleX-O_i-3" style="edgeStyle=none;html=1;entryX=1;entryY=0.25;entryDx=0;entryDy=0;fontColor=#000000;strokeColor=#000000;endArrow=none;endFill=0;" parent="3lwj_UioVCXuEEaLZo7M-1" source="rjyYE7SJsVeIMu5HUs0N-1" target="luAGKo1j1Z5KjGnFhDmR-26" edge="1">
                    <mxGeometry relative="1" as="geometry"/>
                </mxCell>
                <mxCell id="rjyYE7SJsVeIMu5HUs0N-1" value="publication_ date" style="ellipse;whiteSpace=wrap;html=1;fillColor=#f5f5f5;strokeColor=#666666;fontColor=#333333;" parent="3lwj_UioVCXuEEaLZo7M-1" vertex="1">
                    <mxGeometry x="638" y="295" width="90" height="30" as="geometry"/>
                </mxCell>
                <mxCell id="FKFFd5ONAhEGMleX-O_i-9" style="edgeStyle=none;html=1;entryX=1;entryY=0.25;entryDx=0;entryDy=0;fontColor=#000000;strokeColor=#000000;endArrow=none;endFill=0;" parent="3lwj_UioVCXuEEaLZo7M-1" source="_cSAdwh4iL9A-A_u1OaJ-0" target="luAGKo1j1Z5KjGnFhDmR-29" edge="1">
                    <mxGeometry relative="1" as="geometry"/>
                </mxCell>
                <mxCell id="_cSAdwh4iL9A-A_u1OaJ-0" value="filename&lt;span style=&quot;color: rgba(0 , 0 , 0 , 0) ; font-family: monospace ; font-size: 0px&quot;&gt;%3CmxGraphModel%3E%3Croot%3E%3CmxCell%20id%3D%220%22%2F%3E%3CmxCell%20id%3D%221%22%20parent%3D%220%22%2F%3E%3CmxCell%20id%3D%222%22%20value%3D%22Photos_ID%22%20style%3D%22ellipse%3BwhiteSpace%3Dwrap%3Bhtml%3D1%3BfillColor%3D%23f5f5f5%3BstrokeColor%3D%23666666%3BfontColor%3D%23333333%3B%22%20vertex%3D%221%22%20parent%3D%221%22%3E%3CmxGeometry%20x%3D%22490%22%20y%3D%22230%22%20width%3D%2290%22%20height%3D%2230%22%20as%3D%22geometry%22%2F%3E%3C%2FmxCell%3E%3C%2Froot%3E%3C%2FmxGraphModel%3E&lt;/span&gt;" style="ellipse;whiteSpace=wrap;html=1;fillColor=#f5f5f5;strokeColor=#666666;fontColor=#333333;" parent="3lwj_UioVCXuEEaLZo7M-1" vertex="1">
                    <mxGeometry x="638" y="455" width="90" height="30" as="geometry"/>
                </mxCell>
                <mxCell id="FKFFd5ONAhEGMleX-O_i-10" style="edgeStyle=none;html=1;entryX=1;entryY=0.75;entryDx=0;entryDy=0;fontColor=#000000;strokeColor=#000000;endArrow=none;endFill=0;" parent="3lwj_UioVCXuEEaLZo7M-1" source="_cSAdwh4iL9A-A_u1OaJ-1" target="luAGKo1j1Z5KjGnFhDmR-29" edge="1">
                    <mxGeometry relative="1" as="geometry"/>
                </mxCell>
                <mxCell id="_cSAdwh4iL9A-A_u1OaJ-1" value="description" style="ellipse;whiteSpace=wrap;html=1;fillColor=#f5f5f5;strokeColor=#666666;fontColor=#333333;" parent="3lwj_UioVCXuEEaLZo7M-1" vertex="1">
                    <mxGeometry x="688" y="495" width="90" height="30" as="geometry"/>
                </mxCell>
                <mxCell id="FKFFd5ONAhEGMleX-O_i-13" style="edgeStyle=none;html=1;entryX=0.75;entryY=1;entryDx=0;entryDy=0;fontColor=#000000;strokeColor=#000000;endArrow=none;endFill=0;" parent="3lwj_UioVCXuEEaLZo7M-1" source="FKFFd5ONAhEGMleX-O_i-0" target="luAGKo1j1Z5KjGnFhDmR-32" edge="1">
                    <mxGeometry relative="1" as="geometry"/>
                </mxCell>
                <mxCell id="FKFFd5ONAhEGMleX-O_i-0" value="position coordinates_ID" style="ellipse;whiteSpace=wrap;html=1;fillColor=#f5f5f5;strokeColor=#666666;fontColor=#333333;" parent="3lwj_UioVCXuEEaLZo7M-1" vertex="1">
                    <mxGeometry x="668" y="170" width="90" height="35" as="geometry"/>
                </mxCell>
                <mxCell id="FKFFd5ONAhEGMleX-O_i-24" value="" style="edgeStyle=elbowEdgeStyle;elbow=horizontal;endArrow=none;html=1;fontColor=#000000;strokeColor=#000000;endFill=0;exitX=1;exitY=0.867;exitDx=0;exitDy=0;exitPerimeter=0;entryX=0.992;entryY=0.633;entryDx=0;entryDy=0;entryPerimeter=0;" parent="3lwj_UioVCXuEEaLZo7M-1" source="luAGKo1j1Z5KjGnFhDmR-29" target="luAGKo1j1Z5KjGnFhDmR-32" edge="1">
                    <mxGeometry width="50" height="50" relative="1" as="geometry">
                        <mxPoint x="618" y="560" as="sourcePoint"/>
                        <mxPoint x="668" y="150" as="targetPoint"/>
                        <Array as="points">
                            <mxPoint x="891" y="340"/>
                        </Array>
                    </mxGeometry>
                </mxCell>
                <mxCell id="yKZNI77rkbOZx9BWr8u3-1" style="edgeStyle=none;html=1;entryX=0.433;entryY=1.033;entryDx=0;entryDy=0;entryPerimeter=0;fontColor=#000000;startArrow=none;startFill=0;endArrow=none;endFill=0;strokeColor=#000000;" parent="3lwj_UioVCXuEEaLZo7M-1" source="yKZNI77rkbOZx9BWr8u3-0" target="luAGKo1j1Z5KjGnFhDmR-1" edge="1">
                    <mxGeometry relative="1" as="geometry"/>
                </mxCell>
                <mxCell id="yKZNI77rkbOZx9BWr8u3-0" value="phone number" style="ellipse;whiteSpace=wrap;html=1;fillColor=#f5f5f5;strokeColor=#666666;fontColor=#333333;" parent="3lwj_UioVCXuEEaLZo7M-1" vertex="1">
                    <mxGeometry x="140" y="405" width="90" height="30" as="geometry"/>
                </mxCell>
            </root>
        </mxGraphModel>
    </diagram>
    <diagram id="w8Olu19wRb-h_ATnesID" name="Page-3_UML_">
        <mxGraphModel dx="1115" dy="644" grid="1" gridSize="12" guides="1" tooltips="1" connect="1" arrows="1" fold="1" page="1" pageScale="1" pageWidth="850" pageHeight="1100" background="#ffffff" math="0" shadow="0">
            <root>
                <mxCell id="-09iFpXVnXHrJN9gj5xh-0"/>
                <mxCell id="-09iFpXVnXHrJN9gj5xh-1" parent="-09iFpXVnXHrJN9gj5xh-0"/>
                <mxCell id="g5OM0ERqmmSRcbO9uRmM-228" style="edgeStyle=orthogonalEdgeStyle;html=1;fontColor=#000000;startArrow=none;startFill=0;endArrow=none;endFill=0;strokeColor=#000000;entryX=0;entryY=0.5;entryDx=0;entryDy=0;" parent="-09iFpXVnXHrJN9gj5xh-1" target="g5OM0ERqmmSRcbO9uRmM-255" edge="1">
                    <mxGeometry relative="1" as="geometry">
                        <mxPoint x="492" y="582" as="targetPoint"/>
                        <Array as="points">
                            <mxPoint x="414" y="466"/>
                            <mxPoint x="440" y="466"/>
                            <mxPoint x="440" y="582"/>
                        </Array>
                        <mxPoint x="414" y="466" as="sourcePoint"/>
                    </mxGeometry>
                </mxCell>
                <mxCell id="g5OM0ERqmmSRcbO9uRmM-229" value="User" style="shape=table;startSize=30;container=1;collapsible=0;childLayout=tableLayout;fixedRows=1;rowLines=0;fontStyle=1;align=center;pointerEvents=1;fillColor=#d0cee2;strokeColor=#56517e;fontColor=#000000;" parent="-09iFpXVnXHrJN9gj5xh-1" vertex="1">
                    <mxGeometry x="220" y="408" width="194" height="215" as="geometry"/>
                </mxCell>
                <mxCell id="g5OM0ERqmmSRcbO9uRmM-230" value="" style="shape=partialRectangle;html=1;whiteSpace=wrap;collapsible=0;dropTarget=0;pointerEvents=1;fillColor=none;top=0;left=0;bottom=1;right=0;points=[[0,0.5],[1,0.5]];portConstraint=eastwest;fontColor=#000000;" parent="g5OM0ERqmmSRcbO9uRmM-229" vertex="1">
                    <mxGeometry y="30" width="194" height="30" as="geometry"/>
                </mxCell>
                <mxCell id="g5OM0ERqmmSRcbO9uRmM-231" value="1" style="shape=partialRectangle;html=1;whiteSpace=wrap;connectable=0;fillColor=none;top=0;left=0;bottom=0;right=0;overflow=hidden;pointerEvents=1;fontColor=#000000;" parent="g5OM0ERqmmSRcbO9uRmM-230" vertex="1">
                    <mxGeometry width="43" height="30" as="geometry">
                        <mxRectangle width="43" height="30" as="alternateBounds"/>
                    </mxGeometry>
                </mxCell>
                <mxCell id="g5OM0ERqmmSRcbO9uRmM-232" value="user_ID: int" style="shape=partialRectangle;html=1;whiteSpace=wrap;connectable=0;fillColor=none;top=0;left=0;bottom=0;right=0;align=left;spacingLeft=6;overflow=hidden;pointerEvents=1;fontColor=#000000;" parent="g5OM0ERqmmSRcbO9uRmM-230" vertex="1">
                    <mxGeometry x="43" width="151" height="30" as="geometry">
                        <mxRectangle width="151" height="30" as="alternateBounds"/>
                    </mxGeometry>
                </mxCell>
                <mxCell id="g5OM0ERqmmSRcbO9uRmM-233" value="" style="shape=partialRectangle;html=1;whiteSpace=wrap;collapsible=0;dropTarget=0;pointerEvents=1;fillColor=none;top=0;left=0;bottom=0;right=0;points=[[0,0.5],[1,0.5]];portConstraint=eastwest;fontColor=#000000;" parent="g5OM0ERqmmSRcbO9uRmM-229" vertex="1">
                    <mxGeometry y="60" width="194" height="30" as="geometry"/>
                </mxCell>
                <mxCell id="g5OM0ERqmmSRcbO9uRmM-234" value="2" style="shape=partialRectangle;html=1;whiteSpace=wrap;connectable=0;fillColor=none;top=0;left=0;bottom=0;right=0;overflow=hidden;pointerEvents=1;fontColor=#000000;" parent="g5OM0ERqmmSRcbO9uRmM-233" vertex="1">
                    <mxGeometry width="43" height="30" as="geometry">
                        <mxRectangle width="43" height="30" as="alternateBounds"/>
                    </mxGeometry>
                </mxCell>
                <mxCell id="g5OM0ERqmmSRcbO9uRmM-235" value="full_name: varchar" style="shape=partialRectangle;html=1;whiteSpace=wrap;connectable=0;fillColor=none;top=0;left=0;bottom=0;right=0;align=left;spacingLeft=6;overflow=hidden;pointerEvents=1;fontColor=#000000;" parent="g5OM0ERqmmSRcbO9uRmM-233" vertex="1">
                    <mxGeometry x="43" width="151" height="30" as="geometry">
                        <mxRectangle width="151" height="30" as="alternateBounds"/>
                    </mxGeometry>
                </mxCell>
                <mxCell id="g5OM0ERqmmSRcbO9uRmM-236" value="" style="shape=partialRectangle;html=1;whiteSpace=wrap;collapsible=0;dropTarget=0;pointerEvents=1;fillColor=none;top=0;left=0;bottom=0;right=0;points=[[0,0.5],[1,0.5]];portConstraint=eastwest;fontColor=#000000;" parent="g5OM0ERqmmSRcbO9uRmM-229" vertex="1">
                    <mxGeometry y="90" width="194" height="30" as="geometry"/>
                </mxCell>
                <mxCell id="g5OM0ERqmmSRcbO9uRmM-237" value="3" style="shape=partialRectangle;html=1;whiteSpace=wrap;connectable=0;fillColor=none;top=0;left=0;bottom=0;right=0;overflow=hidden;pointerEvents=1;fontColor=#000000;" parent="g5OM0ERqmmSRcbO9uRmM-236" vertex="1">
                    <mxGeometry width="43" height="30" as="geometry">
                        <mxRectangle width="43" height="30" as="alternateBounds"/>
                    </mxGeometry>
                </mxCell>
                <mxCell id="g5OM0ERqmmSRcbO9uRmM-238" value="nick_name: varchar" style="shape=partialRectangle;html=1;whiteSpace=wrap;connectable=0;fillColor=none;top=0;left=0;bottom=0;right=0;align=left;spacingLeft=6;overflow=hidden;pointerEvents=1;fontColor=#000000;" parent="g5OM0ERqmmSRcbO9uRmM-236" vertex="1">
                    <mxGeometry x="43" width="151" height="30" as="geometry">
                        <mxRectangle width="151" height="30" as="alternateBounds"/>
                    </mxGeometry>
                </mxCell>
                <mxCell id="g5OM0ERqmmSRcbO9uRmM-239" value="" style="shape=partialRectangle;html=1;whiteSpace=wrap;collapsible=0;dropTarget=0;pointerEvents=1;fillColor=none;top=0;left=0;bottom=0;right=0;points=[[0,0.5],[1,0.5]];portConstraint=eastwest;fontColor=#000000;" parent="g5OM0ERqmmSRcbO9uRmM-229" vertex="1">
                    <mxGeometry y="120" width="194" height="30" as="geometry"/>
                </mxCell>
                <mxCell id="g5OM0ERqmmSRcbO9uRmM-240" value="4" style="shape=partialRectangle;html=1;whiteSpace=wrap;connectable=0;fillColor=none;top=0;left=0;bottom=0;right=0;overflow=hidden;pointerEvents=1;fontColor=#000000;" parent="g5OM0ERqmmSRcbO9uRmM-239" vertex="1">
                    <mxGeometry width="43" height="30" as="geometry">
                        <mxRectangle width="43" height="30" as="alternateBounds"/>
                    </mxGeometry>
                </mxCell>
                <mxCell id="g5OM0ERqmmSRcbO9uRmM-241" value="password: varchar" style="shape=partialRectangle;html=1;whiteSpace=wrap;connectable=0;fillColor=none;top=0;left=0;bottom=0;right=0;align=left;spacingLeft=6;overflow=hidden;pointerEvents=1;fontColor=#000000;" parent="g5OM0ERqmmSRcbO9uRmM-239" vertex="1">
                    <mxGeometry x="43" width="151" height="30" as="geometry">
                        <mxRectangle width="151" height="30" as="alternateBounds"/>
                    </mxGeometry>
                </mxCell>
                <mxCell id="g5OM0ERqmmSRcbO9uRmM-242" value="" style="shape=partialRectangle;html=1;whiteSpace=wrap;collapsible=0;dropTarget=0;pointerEvents=1;fillColor=none;top=0;left=0;bottom=0;right=0;points=[[0,0.5],[1,0.5]];portConstraint=eastwest;fontColor=#000000;" parent="g5OM0ERqmmSRcbO9uRmM-229" vertex="1">
                    <mxGeometry y="150" width="194" height="30" as="geometry"/>
                </mxCell>
                <mxCell id="g5OM0ERqmmSRcbO9uRmM-243" value="5" style="shape=partialRectangle;html=1;whiteSpace=wrap;connectable=0;fillColor=none;top=0;left=0;bottom=0;right=0;overflow=hidden;pointerEvents=1;fontColor=#000000;" parent="g5OM0ERqmmSRcbO9uRmM-242" vertex="1">
                    <mxGeometry width="43" height="30" as="geometry">
                        <mxRectangle width="43" height="30" as="alternateBounds"/>
                    </mxGeometry>
                </mxCell>
                <mxCell id="g5OM0ERqmmSRcbO9uRmM-244" value="email: varchar" style="shape=partialRectangle;html=1;whiteSpace=wrap;connectable=0;fillColor=none;top=0;left=0;bottom=0;right=0;align=left;spacingLeft=6;overflow=hidden;pointerEvents=1;fontColor=#000000;" parent="g5OM0ERqmmSRcbO9uRmM-242" vertex="1">
                    <mxGeometry x="43" width="151" height="30" as="geometry">
                        <mxRectangle width="151" height="30" as="alternateBounds"/>
                    </mxGeometry>
                </mxCell>
                <mxCell id="g5OM0ERqmmSRcbO9uRmM-245" value="" style="shape=partialRectangle;html=1;whiteSpace=wrap;collapsible=0;dropTarget=0;pointerEvents=1;fillColor=none;top=0;left=0;bottom=1;right=0;points=[[0,0.5],[1,0.5]];portConstraint=eastwest;fontColor=#000000;" parent="g5OM0ERqmmSRcbO9uRmM-229" vertex="1">
                    <mxGeometry y="180" width="194" height="30" as="geometry"/>
                </mxCell>
                <mxCell id="g5OM0ERqmmSRcbO9uRmM-246" value="6" style="shape=partialRectangle;html=1;whiteSpace=wrap;connectable=0;fillColor=none;top=0;left=0;bottom=0;right=0;overflow=hidden;pointerEvents=1;fontColor=#000000;" parent="g5OM0ERqmmSRcbO9uRmM-245" vertex="1">
                    <mxGeometry width="43" height="30" as="geometry">
                        <mxRectangle width="43" height="30" as="alternateBounds"/>
                    </mxGeometry>
                </mxCell>
                <mxCell id="g5OM0ERqmmSRcbO9uRmM-247" value="phone_number: varchar" style="shape=partialRectangle;html=1;whiteSpace=wrap;connectable=0;fillColor=none;top=0;left=0;bottom=0;right=0;align=left;spacingLeft=6;overflow=hidden;pointerEvents=1;fontColor=#000000;" parent="g5OM0ERqmmSRcbO9uRmM-245" vertex="1">
                    <mxGeometry x="43" width="151" height="30" as="geometry">
                        <mxRectangle width="151" height="30" as="alternateBounds"/>
                    </mxGeometry>
                </mxCell>
                <mxCell id="g5OM0ERqmmSRcbO9uRmM-248" value="Post" style="shape=table;startSize=30;container=1;collapsible=0;childLayout=tableLayout;fixedRows=1;rowLines=0;fontStyle=1;align=center;pointerEvents=1;fillColor=#d0cee2;strokeColor=#56517e;fontColor=#000000;" parent="-09iFpXVnXHrJN9gj5xh-1" vertex="1">
                    <mxGeometry x="504" y="478" width="168" height="120" as="geometry"/>
                </mxCell>
                <mxCell id="g5OM0ERqmmSRcbO9uRmM-249" value="" style="shape=partialRectangle;html=1;whiteSpace=wrap;collapsible=0;dropTarget=0;pointerEvents=1;fillColor=none;top=0;left=0;bottom=1;right=0;points=[[0,0.5],[1,0.5]];portConstraint=eastwest;fontColor=#000000;" parent="g5OM0ERqmmSRcbO9uRmM-248" vertex="1">
                    <mxGeometry y="30" width="168" height="30" as="geometry"/>
                </mxCell>
                <mxCell id="g5OM0ERqmmSRcbO9uRmM-250" value="1" style="shape=partialRectangle;html=1;whiteSpace=wrap;connectable=0;fillColor=none;top=0;left=0;bottom=0;right=0;overflow=hidden;pointerEvents=1;fontColor=#000000;" parent="g5OM0ERqmmSRcbO9uRmM-249" vertex="1">
                    <mxGeometry width="37" height="30" as="geometry">
                        <mxRectangle width="37" height="30" as="alternateBounds"/>
                    </mxGeometry>
                </mxCell>
                <mxCell id="g5OM0ERqmmSRcbO9uRmM-251" value="post_ID: int" style="shape=partialRectangle;html=1;whiteSpace=wrap;connectable=0;fillColor=none;top=0;left=0;bottom=0;right=0;align=left;spacingLeft=6;overflow=hidden;pointerEvents=1;fontColor=#000000;" parent="g5OM0ERqmmSRcbO9uRmM-249" vertex="1">
                    <mxGeometry x="37" width="131" height="30" as="geometry">
                        <mxRectangle width="131" height="30" as="alternateBounds"/>
                    </mxGeometry>
                </mxCell>
                <mxCell id="g5OM0ERqmmSRcbO9uRmM-252" value="" style="shape=partialRectangle;html=1;whiteSpace=wrap;collapsible=0;dropTarget=0;pointerEvents=1;fillColor=none;top=0;left=0;bottom=0;right=0;points=[[0,0.5],[1,0.5]];portConstraint=eastwest;fontColor=#000000;" parent="g5OM0ERqmmSRcbO9uRmM-248" vertex="1">
                    <mxGeometry y="60" width="168" height="30" as="geometry"/>
                </mxCell>
                <mxCell id="g5OM0ERqmmSRcbO9uRmM-253" value="2" style="shape=partialRectangle;html=1;whiteSpace=wrap;connectable=0;fillColor=none;top=0;left=0;bottom=0;right=0;overflow=hidden;pointerEvents=1;fontColor=#000000;" parent="g5OM0ERqmmSRcbO9uRmM-252" vertex="1">
                    <mxGeometry width="37" height="30" as="geometry">
                        <mxRectangle width="37" height="30" as="alternateBounds"/>
                    </mxGeometry>
                </mxCell>
                <mxCell id="g5OM0ERqmmSRcbO9uRmM-254" value="&lt;span&gt;publication_date: date&lt;/span&gt;" style="shape=partialRectangle;html=1;whiteSpace=wrap;connectable=0;fillColor=none;top=0;left=0;bottom=0;right=0;align=left;spacingLeft=6;overflow=hidden;pointerEvents=1;fontColor=#000000;" parent="g5OM0ERqmmSRcbO9uRmM-252" vertex="1">
                    <mxGeometry x="37" width="131" height="30" as="geometry">
                        <mxRectangle width="131" height="30" as="alternateBounds"/>
                    </mxGeometry>
                </mxCell>
                <mxCell id="g5OM0ERqmmSRcbO9uRmM-255" value="" style="shape=partialRectangle;html=1;whiteSpace=wrap;collapsible=0;dropTarget=0;pointerEvents=1;fillColor=none;top=0;left=0;bottom=0;right=0;points=[[0,0.5],[1,0.5]];portConstraint=eastwest;fontColor=#000000;" parent="g5OM0ERqmmSRcbO9uRmM-248" vertex="1">
                    <mxGeometry y="90" width="168" height="30" as="geometry"/>
                </mxCell>
                <mxCell id="g5OM0ERqmmSRcbO9uRmM-256" value="3" style="shape=partialRectangle;html=1;whiteSpace=wrap;connectable=0;fillColor=none;top=0;left=0;bottom=0;right=0;overflow=hidden;pointerEvents=1;fontColor=#000000;" parent="g5OM0ERqmmSRcbO9uRmM-255" vertex="1">
                    <mxGeometry width="37" height="30" as="geometry">
                        <mxRectangle width="37" height="30" as="alternateBounds"/>
                    </mxGeometry>
                </mxCell>
                <mxCell id="g5OM0ERqmmSRcbO9uRmM-257" value="fk_user_ID" style="shape=partialRectangle;html=1;whiteSpace=wrap;connectable=0;fillColor=none;top=0;left=0;bottom=0;right=0;align=left;spacingLeft=6;overflow=hidden;pointerEvents=1;fontColor=#000000;" parent="g5OM0ERqmmSRcbO9uRmM-255" vertex="1">
                    <mxGeometry x="37" width="131" height="30" as="geometry">
                        <mxRectangle width="131" height="30" as="alternateBounds"/>
                    </mxGeometry>
                </mxCell>
                <mxCell id="g5OM0ERqmmSRcbO9uRmM-258" value="Comment" style="shape=table;startSize=30;container=1;collapsible=0;childLayout=tableLayout;fixedRows=1;rowLines=0;fontStyle=1;align=center;pointerEvents=1;fillColor=#d0cee2;strokeColor=#56517e;fontColor=#000000;" parent="-09iFpXVnXHrJN9gj5xh-1" vertex="1">
                    <mxGeometry x="790" y="395" width="180" height="130" as="geometry"/>
                </mxCell>
                <mxCell id="g5OM0ERqmmSRcbO9uRmM-259" value="" style="shape=partialRectangle;html=1;whiteSpace=wrap;collapsible=0;dropTarget=0;pointerEvents=1;fillColor=none;top=0;left=0;bottom=1;right=0;points=[[0,0.5],[1,0.5]];portConstraint=eastwest;fontColor=#000000;" parent="g5OM0ERqmmSRcbO9uRmM-258" vertex="1">
                    <mxGeometry y="30" width="180" height="30" as="geometry"/>
                </mxCell>
                <mxCell id="g5OM0ERqmmSRcbO9uRmM-260" value="1" style="shape=partialRectangle;html=1;whiteSpace=wrap;connectable=0;fillColor=none;top=0;left=0;bottom=0;right=0;overflow=hidden;pointerEvents=1;fontColor=#000000;" parent="g5OM0ERqmmSRcbO9uRmM-259" vertex="1">
                    <mxGeometry width="40" height="30" as="geometry">
                        <mxRectangle width="40" height="30" as="alternateBounds"/>
                    </mxGeometry>
                </mxCell>
                <mxCell id="g5OM0ERqmmSRcbO9uRmM-261" value="comments_ID: int" style="shape=partialRectangle;html=1;whiteSpace=wrap;connectable=0;fillColor=none;top=0;left=0;bottom=0;right=0;align=left;spacingLeft=6;overflow=hidden;pointerEvents=1;fontColor=#000000;" parent="g5OM0ERqmmSRcbO9uRmM-259" vertex="1">
                    <mxGeometry x="40" width="140" height="30" as="geometry">
                        <mxRectangle width="140" height="30" as="alternateBounds"/>
                    </mxGeometry>
                </mxCell>
                <mxCell id="g5OM0ERqmmSRcbO9uRmM-262" value="" style="shape=partialRectangle;html=1;whiteSpace=wrap;collapsible=0;dropTarget=0;pointerEvents=1;fillColor=none;top=0;left=0;bottom=0;right=0;points=[[0,0.5],[1,0.5]];portConstraint=eastwest;fontColor=#000000;" parent="g5OM0ERqmmSRcbO9uRmM-258" vertex="1">
                    <mxGeometry y="60" width="180" height="30" as="geometry"/>
                </mxCell>
                <mxCell id="g5OM0ERqmmSRcbO9uRmM-263" value="2" style="shape=partialRectangle;html=1;whiteSpace=wrap;connectable=0;fillColor=none;top=0;left=0;bottom=0;right=0;overflow=hidden;pointerEvents=1;fontColor=#000000;" parent="g5OM0ERqmmSRcbO9uRmM-262" vertex="1">
                    <mxGeometry width="40" height="30" as="geometry">
                        <mxRectangle width="40" height="30" as="alternateBounds"/>
                    </mxGeometry>
                </mxCell>
                <mxCell id="g5OM0ERqmmSRcbO9uRmM-264" value="fk_post_ID: int" style="shape=partialRectangle;html=1;whiteSpace=wrap;connectable=0;fillColor=none;top=0;left=0;bottom=0;right=0;align=left;spacingLeft=6;overflow=hidden;pointerEvents=1;fontColor=#000000;" parent="g5OM0ERqmmSRcbO9uRmM-262" vertex="1">
                    <mxGeometry x="40" width="140" height="30" as="geometry">
                        <mxRectangle width="140" height="30" as="alternateBounds"/>
                    </mxGeometry>
                </mxCell>
                <mxCell id="g5OM0ERqmmSRcbO9uRmM-265" value="" style="shape=partialRectangle;html=1;whiteSpace=wrap;collapsible=0;dropTarget=0;pointerEvents=1;fillColor=none;top=0;left=0;bottom=0;right=0;points=[[0,0.5],[1,0.5]];portConstraint=eastwest;fontColor=#000000;" parent="g5OM0ERqmmSRcbO9uRmM-258" vertex="1">
                    <mxGeometry y="90" width="180" height="30" as="geometry"/>
                </mxCell>
                <mxCell id="g5OM0ERqmmSRcbO9uRmM-266" value="2" style="shape=partialRectangle;html=1;whiteSpace=wrap;connectable=0;fillColor=none;top=0;left=0;bottom=0;right=0;overflow=hidden;pointerEvents=1;fontColor=#000000;" parent="g5OM0ERqmmSRcbO9uRmM-265" vertex="1">
                    <mxGeometry width="40" height="30" as="geometry">
                        <mxRectangle width="40" height="30" as="alternateBounds"/>
                    </mxGeometry>
                </mxCell>
                <mxCell id="g5OM0ERqmmSRcbO9uRmM-267" value="text: varchar" style="shape=partialRectangle;html=1;whiteSpace=wrap;connectable=0;fillColor=none;top=0;left=0;bottom=0;right=0;align=left;spacingLeft=6;overflow=hidden;pointerEvents=1;fontColor=#000000;" parent="g5OM0ERqmmSRcbO9uRmM-265" vertex="1">
                    <mxGeometry x="40" width="140" height="30" as="geometry">
                        <mxRectangle width="140" height="30" as="alternateBounds"/>
                    </mxGeometry>
                </mxCell>
                <mxCell id="g5OM0ERqmmSRcbO9uRmM-268" value="Image" style="shape=table;startSize=30;container=1;collapsible=0;childLayout=tableLayout;fixedRows=1;rowLines=0;fontStyle=1;align=center;pointerEvents=1;fillColor=#d0cee2;strokeColor=#56517e;fontColor=#000000;" parent="-09iFpXVnXHrJN9gj5xh-1" vertex="1">
                    <mxGeometry x="790" y="597" width="180" height="160" as="geometry"/>
                </mxCell>
                <mxCell id="g5OM0ERqmmSRcbO9uRmM-269" value="" style="shape=partialRectangle;html=1;whiteSpace=wrap;collapsible=0;dropTarget=0;pointerEvents=1;fillColor=none;top=0;left=0;bottom=1;right=0;points=[[0,0.5],[1,0.5]];portConstraint=eastwest;fontColor=#000000;" parent="g5OM0ERqmmSRcbO9uRmM-268" vertex="1">
                    <mxGeometry y="30" width="180" height="30" as="geometry"/>
                </mxCell>
                <mxCell id="g5OM0ERqmmSRcbO9uRmM-270" value="1" style="shape=partialRectangle;html=1;whiteSpace=wrap;connectable=0;fillColor=none;top=0;left=0;bottom=0;right=0;overflow=hidden;pointerEvents=1;fontColor=#000000;" parent="g5OM0ERqmmSRcbO9uRmM-269" vertex="1">
                    <mxGeometry width="40" height="30" as="geometry">
                        <mxRectangle width="40" height="30" as="alternateBounds"/>
                    </mxGeometry>
                </mxCell>
                <mxCell id="g5OM0ERqmmSRcbO9uRmM-271" value="images_ID: int" style="shape=partialRectangle;html=1;whiteSpace=wrap;connectable=0;fillColor=none;top=0;left=0;bottom=0;right=0;align=left;spacingLeft=6;overflow=hidden;pointerEvents=1;fontColor=#000000;" parent="g5OM0ERqmmSRcbO9uRmM-269" vertex="1">
                    <mxGeometry x="40" width="140" height="30" as="geometry">
                        <mxRectangle width="140" height="30" as="alternateBounds"/>
                    </mxGeometry>
                </mxCell>
                <mxCell id="g5OM0ERqmmSRcbO9uRmM-272" value="" style="shape=partialRectangle;html=1;whiteSpace=wrap;collapsible=0;dropTarget=0;pointerEvents=1;fillColor=none;top=0;left=0;bottom=0;right=0;points=[[0,0.5],[1,0.5]];portConstraint=eastwest;fontColor=#000000;" parent="g5OM0ERqmmSRcbO9uRmM-268" vertex="1">
                    <mxGeometry y="60" width="180" height="30" as="geometry"/>
                </mxCell>
                <mxCell id="g5OM0ERqmmSRcbO9uRmM-273" value="2" style="shape=partialRectangle;html=1;whiteSpace=wrap;connectable=0;fillColor=none;top=0;left=0;bottom=0;right=0;overflow=hidden;pointerEvents=1;fontColor=#000000;" parent="g5OM0ERqmmSRcbO9uRmM-272" vertex="1">
                    <mxGeometry width="40" height="30" as="geometry">
                        <mxRectangle width="40" height="30" as="alternateBounds"/>
                    </mxGeometry>
                </mxCell>
                <mxCell id="g5OM0ERqmmSRcbO9uRmM-274" value="fk_post_ID: int" style="shape=partialRectangle;html=1;whiteSpace=wrap;connectable=0;fillColor=none;top=0;left=0;bottom=0;right=0;align=left;spacingLeft=6;overflow=hidden;pointerEvents=1;fontColor=#000000;" parent="g5OM0ERqmmSRcbO9uRmM-272" vertex="1">
                    <mxGeometry x="40" width="140" height="30" as="geometry">
                        <mxRectangle width="140" height="30" as="alternateBounds"/>
                    </mxGeometry>
                </mxCell>
                <mxCell id="g5OM0ERqmmSRcbO9uRmM-275" value="" style="shape=partialRectangle;html=1;whiteSpace=wrap;collapsible=0;dropTarget=0;pointerEvents=1;fillColor=none;top=0;left=0;bottom=0;right=0;points=[[0,0.5],[1,0.5]];portConstraint=eastwest;fontColor=#000000;" parent="g5OM0ERqmmSRcbO9uRmM-268" vertex="1">
                    <mxGeometry y="90" width="180" height="30" as="geometry"/>
                </mxCell>
                <mxCell id="g5OM0ERqmmSRcbO9uRmM-276" value="3" style="shape=partialRectangle;html=1;whiteSpace=wrap;connectable=0;fillColor=none;top=0;left=0;bottom=0;right=0;overflow=hidden;pointerEvents=1;fontColor=#000000;" parent="g5OM0ERqmmSRcbO9uRmM-275" vertex="1">
                    <mxGeometry width="40" height="30" as="geometry">
                        <mxRectangle width="40" height="30" as="alternateBounds"/>
                    </mxGeometry>
                </mxCell>
                <mxCell id="g5OM0ERqmmSRcbO9uRmM-277" value="file_name: varchar" style="shape=partialRectangle;html=1;whiteSpace=wrap;connectable=0;fillColor=none;top=0;left=0;bottom=0;right=0;align=left;spacingLeft=6;overflow=hidden;pointerEvents=1;fontColor=#000000;" parent="g5OM0ERqmmSRcbO9uRmM-275" vertex="1">
                    <mxGeometry x="40" width="140" height="30" as="geometry">
                        <mxRectangle width="140" height="30" as="alternateBounds"/>
                    </mxGeometry>
                </mxCell>
                <mxCell id="g5OM0ERqmmSRcbO9uRmM-278" value="" style="shape=partialRectangle;html=1;whiteSpace=wrap;collapsible=0;dropTarget=0;pointerEvents=1;fillColor=none;top=0;left=0;bottom=0;right=0;points=[[0,0.5],[1,0.5]];portConstraint=eastwest;fontColor=#000000;" parent="g5OM0ERqmmSRcbO9uRmM-268" vertex="1">
                    <mxGeometry y="120" width="180" height="30" as="geometry"/>
                </mxCell>
                <mxCell id="g5OM0ERqmmSRcbO9uRmM-279" value="4" style="shape=partialRectangle;html=1;whiteSpace=wrap;connectable=0;fillColor=none;top=0;left=0;bottom=0;right=0;overflow=hidden;pointerEvents=1;fontColor=#000000;" parent="g5OM0ERqmmSRcbO9uRmM-278" vertex="1">
                    <mxGeometry width="40" height="30" as="geometry">
                        <mxRectangle width="40" height="30" as="alternateBounds"/>
                    </mxGeometry>
                </mxCell>
                <mxCell id="g5OM0ERqmmSRcbO9uRmM-280" value="description: varchar" style="shape=partialRectangle;html=1;whiteSpace=wrap;connectable=0;fillColor=none;top=0;left=0;bottom=0;right=0;align=left;spacingLeft=6;overflow=hidden;pointerEvents=1;fontColor=#000000;" parent="g5OM0ERqmmSRcbO9uRmM-278" vertex="1">
                    <mxGeometry x="40" width="140" height="30" as="geometry">
                        <mxRectangle width="140" height="30" as="alternateBounds"/>
                    </mxGeometry>
                </mxCell>
                <mxCell id="g5OM0ERqmmSRcbO9uRmM-281" value="" style="edgeStyle=orthogonalEdgeStyle;html=1;fontColor=#FFFFFF;startArrow=none;startFill=0;endArrow=none;endFill=0;strokeColor=#000000;exitX=0;exitY=0.5;exitDx=0;exitDy=0;" parent="-09iFpXVnXHrJN9gj5xh-1" source="g5OM0ERqmmSRcbO9uRmM-286" edge="1">
                    <mxGeometry relative="1" as="geometry">
                        <mxPoint x="672" y="527" as="targetPoint"/>
                        <Array as="points">
                            <mxPoint x="672" y="527"/>
                        </Array>
                    </mxGeometry>
                </mxCell>
                <mxCell id="g5OM0ERqmmSRcbO9uRmM-282" value="Tag" style="shape=table;startSize=30;container=1;collapsible=0;childLayout=tableLayout;fixedRows=1;rowLines=0;fontStyle=1;align=center;pointerEvents=1;fillColor=#d0cee2;strokeColor=#56517e;fontColor=#000000;" parent="-09iFpXVnXHrJN9gj5xh-1" vertex="1">
                    <mxGeometry x="1020" y="452" width="204" height="171" as="geometry"/>
                </mxCell>
                <mxCell id="g5OM0ERqmmSRcbO9uRmM-283" value="" style="shape=partialRectangle;html=1;whiteSpace=wrap;collapsible=0;dropTarget=0;pointerEvents=1;fillColor=none;top=0;left=0;bottom=1;right=0;points=[[0,0.5],[1,0.5]];portConstraint=eastwest;fontColor=#000000;" parent="g5OM0ERqmmSRcbO9uRmM-282" vertex="1">
                    <mxGeometry y="30" width="204" height="30" as="geometry"/>
                </mxCell>
                <mxCell id="g5OM0ERqmmSRcbO9uRmM-284" value="1" style="shape=partialRectangle;html=1;whiteSpace=wrap;connectable=0;fillColor=none;top=0;left=0;bottom=0;right=0;overflow=hidden;pointerEvents=1;fontColor=#000000;" parent="g5OM0ERqmmSRcbO9uRmM-283" vertex="1">
                    <mxGeometry width="46" height="30" as="geometry">
                        <mxRectangle width="46" height="30" as="alternateBounds"/>
                    </mxGeometry>
                </mxCell>
                <mxCell id="g5OM0ERqmmSRcbO9uRmM-285" value="tags_ID: int" style="shape=partialRectangle;html=1;whiteSpace=wrap;connectable=0;fillColor=none;top=0;left=0;bottom=0;right=0;align=left;spacingLeft=6;overflow=hidden;pointerEvents=1;fontColor=#000000;" parent="g5OM0ERqmmSRcbO9uRmM-283" vertex="1">
                    <mxGeometry x="46" width="158" height="30" as="geometry">
                        <mxRectangle width="158" height="30" as="alternateBounds"/>
                    </mxGeometry>
                </mxCell>
                <mxCell id="g5OM0ERqmmSRcbO9uRmM-286" value="" style="shape=partialRectangle;html=1;whiteSpace=wrap;collapsible=0;dropTarget=0;pointerEvents=1;fillColor=none;top=0;left=0;bottom=0;right=0;points=[[0,0.5],[1,0.5]];portConstraint=eastwest;fontColor=#000000;" parent="g5OM0ERqmmSRcbO9uRmM-282" vertex="1">
                    <mxGeometry y="60" width="204" height="30" as="geometry"/>
                </mxCell>
                <mxCell id="g5OM0ERqmmSRcbO9uRmM-287" value="2" style="shape=partialRectangle;html=1;whiteSpace=wrap;connectable=0;fillColor=none;top=0;left=0;bottom=0;right=0;overflow=hidden;pointerEvents=1;fontColor=#000000;" parent="g5OM0ERqmmSRcbO9uRmM-286" vertex="1">
                    <mxGeometry width="46" height="30" as="geometry">
                        <mxRectangle width="46" height="30" as="alternateBounds"/>
                    </mxGeometry>
                </mxCell>
                <mxCell id="g5OM0ERqmmSRcbO9uRmM-288" value="fk_post_ID: int" style="shape=partialRectangle;html=1;whiteSpace=wrap;connectable=0;fillColor=none;top=0;left=0;bottom=0;right=0;align=left;spacingLeft=6;overflow=hidden;pointerEvents=1;fontColor=#000000;" parent="g5OM0ERqmmSRcbO9uRmM-286" vertex="1">
                    <mxGeometry x="46" width="158" height="30" as="geometry">
                        <mxRectangle width="158" height="30" as="alternateBounds"/>
                    </mxGeometry>
                </mxCell>
                <mxCell id="g5OM0ERqmmSRcbO9uRmM-289" value="" style="shape=partialRectangle;html=1;whiteSpace=wrap;collapsible=0;dropTarget=0;pointerEvents=1;fillColor=none;top=0;left=0;bottom=0;right=0;points=[[0,0.5],[1,0.5]];portConstraint=eastwest;fontColor=#000000;" parent="g5OM0ERqmmSRcbO9uRmM-282" vertex="1">
                    <mxGeometry y="90" width="204" height="30" as="geometry"/>
                </mxCell>
                <mxCell id="g5OM0ERqmmSRcbO9uRmM-290" value="3" style="shape=partialRectangle;html=1;whiteSpace=wrap;connectable=0;fillColor=none;top=0;left=0;bottom=0;right=0;overflow=hidden;pointerEvents=1;fontColor=#000000;" parent="g5OM0ERqmmSRcbO9uRmM-289" vertex="1">
                    <mxGeometry width="46" height="30" as="geometry">
                        <mxRectangle width="46" height="30" as="alternateBounds"/>
                    </mxGeometry>
                </mxCell>
                <mxCell id="g5OM0ERqmmSRcbO9uRmM-291" value="fk_user_ID: int" style="shape=partialRectangle;html=1;whiteSpace=wrap;connectable=0;fillColor=none;top=0;left=0;bottom=0;right=0;align=left;spacingLeft=6;overflow=hidden;pointerEvents=1;fontColor=#000000;" parent="g5OM0ERqmmSRcbO9uRmM-289" vertex="1">
                    <mxGeometry x="46" width="158" height="30" as="geometry">
                        <mxRectangle width="158" height="30" as="alternateBounds"/>
                    </mxGeometry>
                </mxCell>
                <mxCell id="g5OM0ERqmmSRcbO9uRmM-292" value="" style="shape=partialRectangle;html=1;whiteSpace=wrap;collapsible=0;dropTarget=0;pointerEvents=1;fillColor=none;top=0;left=0;bottom=0;right=0;points=[[0,0.5],[1,0.5]];portConstraint=eastwest;fontColor=#000000;" parent="g5OM0ERqmmSRcbO9uRmM-282" vertex="1">
                    <mxGeometry y="120" width="204" height="30" as="geometry"/>
                </mxCell>
                <mxCell id="g5OM0ERqmmSRcbO9uRmM-293" value="4" style="shape=partialRectangle;html=1;whiteSpace=wrap;connectable=0;fillColor=none;top=0;left=0;bottom=0;right=0;overflow=hidden;pointerEvents=1;fontColor=#000000;" parent="g5OM0ERqmmSRcbO9uRmM-292" vertex="1">
                    <mxGeometry width="46" height="30" as="geometry">
                        <mxRectangle width="46" height="30" as="alternateBounds"/>
                    </mxGeometry>
                </mxCell>
                <mxCell id="g5OM0ERqmmSRcbO9uRmM-294" value="position coordinates ID:&amp;nbsp;" style="shape=partialRectangle;html=1;whiteSpace=wrap;connectable=0;fillColor=none;top=0;left=0;bottom=0;right=0;align=left;spacingLeft=6;overflow=hidden;pointerEvents=1;fontColor=#000000;" parent="g5OM0ERqmmSRcbO9uRmM-292" vertex="1">
                    <mxGeometry x="46" width="158" height="30" as="geometry">
                        <mxRectangle width="158" height="30" as="alternateBounds"/>
                    </mxGeometry>
                </mxCell>
                <mxCell id="g5OM0ERqmmSRcbO9uRmM-295" style="edgeStyle=orthogonalEdgeStyle;html=1;fontColor=#000000;startArrow=none;startFill=0;endArrow=none;endFill=0;strokeColor=#000000;exitX=1;exitY=0.5;exitDx=0;exitDy=0;entryX=0;entryY=0.5;entryDx=0;entryDy=0;" parent="-09iFpXVnXHrJN9gj5xh-1" source="g5OM0ERqmmSRcbO9uRmM-249" target="g5OM0ERqmmSRcbO9uRmM-262" edge="1">
                    <mxGeometry relative="1" as="geometry">
                        <mxPoint x="948" y="470" as="targetPoint"/>
                        <mxPoint x="900" y="531" as="sourcePoint"/>
                        <Array as="points">
                            <mxPoint x="744" y="522"/>
                            <mxPoint x="744" y="470"/>
                        </Array>
                    </mxGeometry>
                </mxCell>
                <mxCell id="g5OM0ERqmmSRcbO9uRmM-296" style="edgeStyle=orthogonalEdgeStyle;html=1;entryX=0;entryY=0.5;entryDx=0;entryDy=0;fontColor=#000000;startArrow=none;startFill=0;endArrow=none;endFill=0;strokeColor=#000000;exitX=1.005;exitY=0.775;exitDx=0;exitDy=0;exitPerimeter=0;" parent="-09iFpXVnXHrJN9gj5xh-1" source="g5OM0ERqmmSRcbO9uRmM-249" target="g5OM0ERqmmSRcbO9uRmM-272" edge="1">
                    <mxGeometry relative="1" as="geometry">
                        <Array as="points">
                            <mxPoint x="673" y="530"/>
                            <mxPoint x="696" y="530"/>
                            <mxPoint x="696" y="672"/>
                        </Array>
                    </mxGeometry>
                </mxCell>
                <mxCell id="g5OM0ERqmmSRcbO9uRmM-297" style="edgeStyle=orthogonalEdgeStyle;html=1;fontColor=#000000;startArrow=none;startFill=0;endArrow=none;endFill=0;strokeColor=#000000;exitX=1;exitY=0.5;exitDx=0;exitDy=0;" parent="-09iFpXVnXHrJN9gj5xh-1" source="g5OM0ERqmmSRcbO9uRmM-289" target="g5OM0ERqmmSRcbO9uRmM-230" edge="1">
                    <mxGeometry relative="1" as="geometry">
                        <mxPoint x="430" y="435" as="targetPoint"/>
                        <Array as="points">
                            <mxPoint x="1248" y="557"/>
                            <mxPoint x="1248" y="383"/>
                            <mxPoint x="430" y="383"/>
                            <mxPoint x="430" y="453"/>
                        </Array>
                        <mxPoint x="1272" y="563" as="sourcePoint"/>
                    </mxGeometry>
                </mxCell>
            </root>
        </mxGraphModel>
    </diagram>
    <diagram id="u2_HRsdJMPk-10jYZ-Io" name="Page-4_normalization">
        <mxGraphModel dx="1725" dy="97" grid="1" gridSize="12" guides="1" tooltips="1" connect="1" arrows="1" fold="1" page="1" pageScale="1" pageWidth="827" pageHeight="583" background="#ffffff" math="0" shadow="0">
            <root>
                <mxCell id="4rfVpSqc5LY0Yn25zdl8-0"/>
                <mxCell id="4rfVpSqc5LY0Yn25zdl8-1" parent="4rfVpSqc5LY0Yn25zdl8-0"/>
                <mxCell id="r_bpZWHaRCy2lEG5RAIA-37" style="edgeStyle=none;html=1;exitX=0;exitY=0.5;exitDx=0;exitDy=0;entryX=0;entryY=0.5;entryDx=0;entryDy=0;endArrow=ERone;endFill=0;strokeColor=#000000;" parent="4rfVpSqc5LY0Yn25zdl8-1" source="KNBlQUAVArYwgPWN0UJa-85" target="r_bpZWHaRCy2lEG5RAIA-30" edge="1">
                    <mxGeometry relative="1" as="geometry">
                        <Array as="points">
                            <mxPoint x="-708" y="875"/>
                            <mxPoint x="-708" y="1044"/>
                            <mxPoint x="-708" y="1224"/>
                            <mxPoint x="-708" y="1584"/>
                        </Array>
                    </mxGeometry>
                </mxCell>
                <mxCell id="r_bpZWHaRCy2lEG5RAIA-47" style="edgeStyle=none;html=1;startArrow=ERoneToMany;startFill=0;endArrow=none;endFill=0;strokeColor=#000000;exitX=1;exitY=0.5;exitDx=0;exitDy=0;entryX=0;entryY=0.5;entryDx=0;entryDy=0;" parent="4rfVpSqc5LY0Yn25zdl8-1" source="KNBlQUAVArYwgPWN0UJa-85" target="LDKQARjwoA2-dpLAdaMC-57" edge="1">
                    <mxGeometry relative="1" as="geometry">
                        <mxPoint x="252" y="1104" as="targetPoint"/>
                        <Array as="points">
                            <mxPoint x="180" y="875"/>
                            <mxPoint x="180" y="1092"/>
                        </Array>
                    </mxGeometry>
                </mxCell>
                <mxCell id="r_bpZWHaRCy2lEG5RAIA-33" style="edgeStyle=none;html=1;entryX=0;entryY=0.5;entryDx=0;entryDy=0;strokeColor=#000000;endArrow=ERoneToMany;endFill=0;exitX=1;exitY=0.5;exitDx=0;exitDy=0;" parent="4rfVpSqc5LY0Yn25zdl8-1" source="KNBlQUAVArYwgPWN0UJa-85" target="r_bpZWHaRCy2lEG5RAIA-13" edge="1">
                    <mxGeometry relative="1" as="geometry">
                        <mxPoint x="-444" y="888" as="sourcePoint"/>
                        <Array as="points">
                            <mxPoint x="-444" y="875"/>
                            <mxPoint x="-384" y="1356"/>
                        </Array>
                    </mxGeometry>
                </mxCell>
                <mxCell id="LDKQARjwoA2-dpLAdaMC-0" style="edgeStyle=orthogonalEdgeStyle;html=1;fontColor=#000000;startArrow=none;startFill=0;endArrow=ERoneToMany;endFill=0;strokeColor=#000000;entryX=0;entryY=0.5;entryDx=0;entryDy=0;" parent="4rfVpSqc5LY0Yn25zdl8-1" target="LDKQARjwoA2-dpLAdaMC-24" edge="1">
                    <mxGeometry relative="1" as="geometry">
                        <mxPoint x="-396" y="1003" as="targetPoint"/>
                        <Array as="points">
                            <mxPoint x="-474" y="887"/>
                            <mxPoint x="-448" y="887"/>
                            <mxPoint x="-448" y="1003"/>
                        </Array>
                        <mxPoint x="-474" y="887" as="sourcePoint"/>
                    </mxGeometry>
                </mxCell>
                <mxCell id="LDKQARjwoA2-dpLAdaMC-20" value="Post" style="shape=table;startSize=30;container=1;collapsible=0;childLayout=tableLayout;fixedRows=1;rowLines=0;fontStyle=1;align=center;pointerEvents=1;fillColor=#d0cee2;strokeColor=#56517e;fontColor=#000000;" parent="4rfVpSqc5LY0Yn25zdl8-1" vertex="1">
                    <mxGeometry x="-384" y="899" width="168" height="120" as="geometry"/>
                </mxCell>
                <mxCell id="LDKQARjwoA2-dpLAdaMC-21" value="" style="shape=partialRectangle;html=1;whiteSpace=wrap;collapsible=0;dropTarget=0;pointerEvents=1;fillColor=none;top=0;left=0;bottom=1;right=0;points=[[0,0.5],[1,0.5]];portConstraint=eastwest;fontColor=#000000;" parent="LDKQARjwoA2-dpLAdaMC-20" vertex="1">
                    <mxGeometry y="30" width="168" height="30" as="geometry"/>
                </mxCell>
                <mxCell id="LDKQARjwoA2-dpLAdaMC-22" value="1" style="shape=partialRectangle;html=1;whiteSpace=wrap;connectable=0;fillColor=#FFFFFF;top=0;left=0;bottom=0;right=0;overflow=hidden;pointerEvents=1;fontColor=#000000;" parent="LDKQARjwoA2-dpLAdaMC-21" vertex="1">
                    <mxGeometry width="37" height="30" as="geometry">
                        <mxRectangle width="37" height="30" as="alternateBounds"/>
                    </mxGeometry>
                </mxCell>
                <mxCell id="LDKQARjwoA2-dpLAdaMC-23" value="post_ID: int" style="shape=partialRectangle;html=1;whiteSpace=wrap;connectable=0;fillColor=#FFFFFF;top=0;left=0;bottom=0;right=0;align=left;spacingLeft=6;overflow=hidden;pointerEvents=1;fontColor=#000000;" parent="LDKQARjwoA2-dpLAdaMC-21" vertex="1">
                    <mxGeometry x="37" width="131" height="30" as="geometry">
                        <mxRectangle width="131" height="30" as="alternateBounds"/>
                    </mxGeometry>
                </mxCell>
                <mxCell id="LDKQARjwoA2-dpLAdaMC-27" value="" style="shape=partialRectangle;html=1;whiteSpace=wrap;collapsible=0;dropTarget=0;pointerEvents=1;fillColor=none;top=0;left=0;bottom=0;right=0;points=[[0,0.5],[1,0.5]];portConstraint=eastwest;fontColor=#000000;" parent="LDKQARjwoA2-dpLAdaMC-20" vertex="1">
                    <mxGeometry y="60" width="168" height="30" as="geometry"/>
                </mxCell>
                <mxCell id="LDKQARjwoA2-dpLAdaMC-28" value="2" style="shape=partialRectangle;html=1;whiteSpace=wrap;connectable=0;fillColor=#FFFFFF;top=0;left=0;bottom=0;right=0;overflow=hidden;pointerEvents=1;fontColor=#000000;" parent="LDKQARjwoA2-dpLAdaMC-27" vertex="1">
                    <mxGeometry width="37" height="30" as="geometry">
                        <mxRectangle width="37" height="30" as="alternateBounds"/>
                    </mxGeometry>
                </mxCell>
                <mxCell id="LDKQARjwoA2-dpLAdaMC-29" value="&lt;span&gt;publication_date: date&lt;/span&gt;" style="shape=partialRectangle;html=1;whiteSpace=wrap;connectable=0;fillColor=#FFFFFF;top=0;left=0;bottom=0;right=0;align=left;spacingLeft=6;overflow=hidden;pointerEvents=1;fontColor=#000000;" parent="LDKQARjwoA2-dpLAdaMC-27" vertex="1">
                    <mxGeometry x="37" width="131" height="30" as="geometry">
                        <mxRectangle width="131" height="30" as="alternateBounds"/>
                    </mxGeometry>
                </mxCell>
                <mxCell id="LDKQARjwoA2-dpLAdaMC-24" value="" style="shape=partialRectangle;html=1;whiteSpace=wrap;collapsible=0;dropTarget=0;pointerEvents=1;fillColor=none;top=0;left=0;bottom=0;right=0;points=[[0,0.5],[1,0.5]];portConstraint=eastwest;fontColor=#000000;" parent="LDKQARjwoA2-dpLAdaMC-20" vertex="1">
                    <mxGeometry y="90" width="168" height="30" as="geometry"/>
                </mxCell>
                <mxCell id="LDKQARjwoA2-dpLAdaMC-25" value="3" style="shape=partialRectangle;html=1;whiteSpace=wrap;connectable=0;fillColor=#FFFFFF;top=0;left=0;bottom=0;right=0;overflow=hidden;pointerEvents=1;fontColor=#000000;" parent="LDKQARjwoA2-dpLAdaMC-24" vertex="1">
                    <mxGeometry width="37" height="30" as="geometry">
                        <mxRectangle width="37" height="30" as="alternateBounds"/>
                    </mxGeometry>
                </mxCell>
                <mxCell id="LDKQARjwoA2-dpLAdaMC-26" value="fk_user_ID" style="shape=partialRectangle;html=1;whiteSpace=wrap;connectable=0;fillColor=#FFFFFF;top=0;left=0;bottom=0;right=0;align=left;spacingLeft=6;overflow=hidden;pointerEvents=1;fontColor=#000000;" parent="LDKQARjwoA2-dpLAdaMC-24" vertex="1">
                    <mxGeometry x="37" width="131" height="30" as="geometry">
                        <mxRectangle width="131" height="30" as="alternateBounds"/>
                    </mxGeometry>
                </mxCell>
                <mxCell id="LDKQARjwoA2-dpLAdaMC-37" value="Image" style="shape=table;startSize=30;container=1;collapsible=0;childLayout=tableLayout;fixedRows=1;rowLines=0;fontStyle=1;align=center;pointerEvents=1;fillColor=#d0cee2;strokeColor=#56517e;fontColor=#000000;" parent="4rfVpSqc5LY0Yn25zdl8-1" vertex="1">
                    <mxGeometry x="-98" y="976" width="182" height="180" as="geometry"/>
                </mxCell>
                <mxCell id="LDKQARjwoA2-dpLAdaMC-38" value="" style="shape=partialRectangle;html=1;whiteSpace=wrap;collapsible=0;dropTarget=0;pointerEvents=1;fillColor=none;top=0;left=0;bottom=1;right=0;points=[[0,0.5],[1,0.5]];portConstraint=eastwest;fontColor=#000000;" parent="LDKQARjwoA2-dpLAdaMC-37" vertex="1">
                    <mxGeometry y="30" width="182" height="30" as="geometry"/>
                </mxCell>
                <mxCell id="LDKQARjwoA2-dpLAdaMC-39" value="1" style="shape=partialRectangle;html=1;whiteSpace=wrap;connectable=0;fillColor=#FFFFFF;top=0;left=0;bottom=0;right=0;overflow=hidden;pointerEvents=1;fontColor=#000000;" parent="LDKQARjwoA2-dpLAdaMC-38" vertex="1">
                    <mxGeometry width="40" height="30" as="geometry">
                        <mxRectangle width="40" height="30" as="alternateBounds"/>
                    </mxGeometry>
                </mxCell>
                <mxCell id="LDKQARjwoA2-dpLAdaMC-40" value="images_ID: int" style="shape=partialRectangle;html=1;whiteSpace=wrap;connectable=0;fillColor=#FFFFFF;top=0;left=0;bottom=0;right=0;align=left;spacingLeft=6;overflow=hidden;pointerEvents=1;fontColor=#000000;" parent="LDKQARjwoA2-dpLAdaMC-38" vertex="1">
                    <mxGeometry x="40" width="142" height="30" as="geometry">
                        <mxRectangle width="142" height="30" as="alternateBounds"/>
                    </mxGeometry>
                </mxCell>
                <mxCell id="LDKQARjwoA2-dpLAdaMC-41" value="" style="shape=partialRectangle;html=1;whiteSpace=wrap;collapsible=0;dropTarget=0;pointerEvents=1;fillColor=none;top=0;left=0;bottom=0;right=0;points=[[0,0.5],[1,0.5]];portConstraint=eastwest;fontColor=#000000;" parent="LDKQARjwoA2-dpLAdaMC-37" vertex="1">
                    <mxGeometry y="60" width="182" height="30" as="geometry"/>
                </mxCell>
                <mxCell id="LDKQARjwoA2-dpLAdaMC-42" value="2" style="shape=partialRectangle;html=1;whiteSpace=wrap;connectable=0;fillColor=#FFFFFF;top=0;left=0;bottom=0;right=0;overflow=hidden;pointerEvents=1;fontColor=#000000;" parent="LDKQARjwoA2-dpLAdaMC-41" vertex="1">
                    <mxGeometry width="40" height="30" as="geometry">
                        <mxRectangle width="40" height="30" as="alternateBounds"/>
                    </mxGeometry>
                </mxCell>
                <mxCell id="LDKQARjwoA2-dpLAdaMC-43" value="fk_post_ID: int" style="shape=partialRectangle;html=1;whiteSpace=wrap;connectable=0;fillColor=#FFFFFF;top=0;left=0;bottom=0;right=0;align=left;spacingLeft=6;overflow=hidden;pointerEvents=1;fontColor=#000000;" parent="LDKQARjwoA2-dpLAdaMC-41" vertex="1">
                    <mxGeometry x="40" width="142" height="30" as="geometry">
                        <mxRectangle width="142" height="30" as="alternateBounds"/>
                    </mxGeometry>
                </mxCell>
                <mxCell id="LDKQARjwoA2-dpLAdaMC-44" value="" style="shape=partialRectangle;html=1;whiteSpace=wrap;collapsible=0;dropTarget=0;pointerEvents=1;fillColor=none;top=0;left=0;bottom=0;right=0;points=[[0,0.5],[1,0.5]];portConstraint=eastwest;fontColor=#000000;" parent="LDKQARjwoA2-dpLAdaMC-37" vertex="1">
                    <mxGeometry y="90" width="182" height="30" as="geometry"/>
                </mxCell>
                <mxCell id="LDKQARjwoA2-dpLAdaMC-45" value="3" style="shape=partialRectangle;html=1;whiteSpace=wrap;connectable=0;fillColor=#FFFFFF;top=0;left=0;bottom=0;right=0;overflow=hidden;pointerEvents=1;fontColor=#000000;" parent="LDKQARjwoA2-dpLAdaMC-44" vertex="1">
                    <mxGeometry width="40" height="30" as="geometry">
                        <mxRectangle width="40" height="30" as="alternateBounds"/>
                    </mxGeometry>
                </mxCell>
                <mxCell id="LDKQARjwoA2-dpLAdaMC-46" value="file_name: varchar" style="shape=partialRectangle;html=1;whiteSpace=wrap;connectable=0;fillColor=#FFFFFF;top=0;left=0;bottom=0;right=0;align=left;spacingLeft=6;overflow=hidden;pointerEvents=1;fontColor=#000000;" parent="LDKQARjwoA2-dpLAdaMC-44" vertex="1">
                    <mxGeometry x="40" width="142" height="30" as="geometry">
                        <mxRectangle width="142" height="30" as="alternateBounds"/>
                    </mxGeometry>
                </mxCell>
                <mxCell id="LDKQARjwoA2-dpLAdaMC-47" value="" style="shape=partialRectangle;html=1;whiteSpace=wrap;collapsible=0;dropTarget=0;pointerEvents=1;fillColor=none;top=0;left=0;bottom=0;right=0;points=[[0,0.5],[1,0.5]];portConstraint=eastwest;fontColor=#000000;" parent="LDKQARjwoA2-dpLAdaMC-37" vertex="1">
                    <mxGeometry y="120" width="182" height="30" as="geometry"/>
                </mxCell>
                <mxCell id="LDKQARjwoA2-dpLAdaMC-48" value="4" style="shape=partialRectangle;html=1;whiteSpace=wrap;connectable=0;fillColor=#FFFFFF;top=0;left=0;bottom=0;right=0;overflow=hidden;pointerEvents=1;fontColor=#000000;" parent="LDKQARjwoA2-dpLAdaMC-47" vertex="1">
                    <mxGeometry width="40" height="30" as="geometry">
                        <mxRectangle width="40" height="30" as="alternateBounds"/>
                    </mxGeometry>
                </mxCell>
                <mxCell id="LDKQARjwoA2-dpLAdaMC-49" value="description: varchar" style="shape=partialRectangle;html=1;whiteSpace=wrap;connectable=0;fillColor=#FFFFFF;top=0;left=0;bottom=0;right=0;align=left;spacingLeft=6;overflow=hidden;pointerEvents=1;fontColor=#000000;" parent="LDKQARjwoA2-dpLAdaMC-47" vertex="1">
                    <mxGeometry x="40" width="142" height="30" as="geometry">
                        <mxRectangle width="142" height="30" as="alternateBounds"/>
                    </mxGeometry>
                </mxCell>
                <mxCell id="Ag6uyfUtwEuV5ZyT0DE5-3" value="" style="shape=partialRectangle;html=1;whiteSpace=wrap;collapsible=0;dropTarget=0;pointerEvents=1;fillColor=none;top=0;left=0;bottom=0;right=0;points=[[0,0.5],[1,0.5]];portConstraint=eastwest;fontColor=#000000;" parent="LDKQARjwoA2-dpLAdaMC-37" vertex="1">
                    <mxGeometry y="150" width="182" height="30" as="geometry"/>
                </mxCell>
                <mxCell id="Ag6uyfUtwEuV5ZyT0DE5-4" value="5" style="shape=partialRectangle;html=1;whiteSpace=wrap;connectable=0;fillColor=#FFFFFF;top=0;left=0;bottom=0;right=0;overflow=hidden;pointerEvents=1;fontColor=#000000;" parent="Ag6uyfUtwEuV5ZyT0DE5-3" vertex="1">
                    <mxGeometry width="40" height="30" as="geometry">
                        <mxRectangle width="40" height="30" as="alternateBounds"/>
                    </mxGeometry>
                </mxCell>
                <mxCell id="Ag6uyfUtwEuV5ZyT0DE5-5" value="image_location: varchar" style="shape=partialRectangle;html=1;whiteSpace=wrap;connectable=0;fillColor=#FFFFFF;top=0;left=0;bottom=0;right=0;align=left;spacingLeft=6;overflow=hidden;pointerEvents=1;fontColor=#000000;" parent="Ag6uyfUtwEuV5ZyT0DE5-3" vertex="1">
                    <mxGeometry x="40" width="142" height="30" as="geometry">
                        <mxRectangle width="142" height="30" as="alternateBounds"/>
                    </mxGeometry>
                </mxCell>
                <mxCell id="PRPI8aQ6e-YadlMuHZNg-8" value="" style="edgeStyle=orthogonalEdgeStyle;html=1;fontColor=#FFFFFF;startArrow=ERoneToMany;startFill=0;endArrow=none;endFill=0;strokeColor=#000000;" parent="4rfVpSqc5LY0Yn25zdl8-1" edge="1">
                    <mxGeometry relative="1" as="geometry">
                        <mxPoint x="-216" y="948" as="targetPoint"/>
                        <Array as="points">
                            <mxPoint x="252" y="1056"/>
                            <mxPoint x="144" y="1056"/>
                            <mxPoint x="144" y="948"/>
                        </Array>
                        <mxPoint x="252" y="1056" as="sourcePoint"/>
                    </mxGeometry>
                </mxCell>
                <mxCell id="LDKQARjwoA2-dpLAdaMC-50" value="Tag" style="shape=table;startSize=30;container=1;collapsible=0;childLayout=tableLayout;fixedRows=1;rowLines=0;fontStyle=1;align=center;pointerEvents=1;fillColor=#d0cee2;strokeColor=#56517e;fontColor=#000000;" parent="4rfVpSqc5LY0Yn25zdl8-1" vertex="1">
                    <mxGeometry x="252" y="988" width="204" height="164" as="geometry"/>
                </mxCell>
                <mxCell id="LDKQARjwoA2-dpLAdaMC-51" value="" style="shape=partialRectangle;html=1;whiteSpace=wrap;collapsible=0;dropTarget=0;pointerEvents=1;fillColor=none;top=0;left=0;bottom=1;right=0;points=[[0,0.5],[1,0.5]];portConstraint=eastwest;fontColor=#000000;" parent="LDKQARjwoA2-dpLAdaMC-50" vertex="1">
                    <mxGeometry y="30" width="204" height="30" as="geometry"/>
                </mxCell>
                <mxCell id="LDKQARjwoA2-dpLAdaMC-52" value="1" style="shape=partialRectangle;html=1;whiteSpace=wrap;connectable=0;fillColor=#FFFFFF;top=0;left=0;bottom=0;right=0;overflow=hidden;pointerEvents=1;fontColor=#000000;" parent="LDKQARjwoA2-dpLAdaMC-51" vertex="1">
                    <mxGeometry width="46" height="30" as="geometry">
                        <mxRectangle width="46" height="30" as="alternateBounds"/>
                    </mxGeometry>
                </mxCell>
                <mxCell id="LDKQARjwoA2-dpLAdaMC-53" value="tags_ID: int" style="shape=partialRectangle;html=1;whiteSpace=wrap;connectable=0;fillColor=#FFFFFF;top=0;left=0;bottom=0;right=0;align=left;spacingLeft=6;overflow=hidden;pointerEvents=1;fontColor=#000000;" parent="LDKQARjwoA2-dpLAdaMC-51" vertex="1">
                    <mxGeometry x="46" width="158" height="30" as="geometry">
                        <mxRectangle width="158" height="30" as="alternateBounds"/>
                    </mxGeometry>
                </mxCell>
                <mxCell id="LDKQARjwoA2-dpLAdaMC-54" value="" style="shape=partialRectangle;html=1;whiteSpace=wrap;collapsible=0;dropTarget=0;pointerEvents=1;fillColor=none;top=0;left=0;bottom=0;right=0;points=[[0,0.5],[1,0.5]];portConstraint=eastwest;fontColor=#000000;" parent="LDKQARjwoA2-dpLAdaMC-50" vertex="1">
                    <mxGeometry y="60" width="204" height="30" as="geometry"/>
                </mxCell>
                <mxCell id="LDKQARjwoA2-dpLAdaMC-55" value="2" style="shape=partialRectangle;html=1;whiteSpace=wrap;connectable=0;fillColor=#FFFFFF;top=0;left=0;bottom=0;right=0;overflow=hidden;pointerEvents=1;fontColor=#000000;" parent="LDKQARjwoA2-dpLAdaMC-54" vertex="1">
                    <mxGeometry width="46" height="30" as="geometry">
                        <mxRectangle width="46" height="30" as="alternateBounds"/>
                    </mxGeometry>
                </mxCell>
                <mxCell id="LDKQARjwoA2-dpLAdaMC-56" value="fk_post_ID: int" style="shape=partialRectangle;html=1;whiteSpace=wrap;connectable=0;fillColor=#FFFFFF;top=0;left=0;bottom=0;right=0;align=left;spacingLeft=6;overflow=hidden;pointerEvents=1;fontColor=#000000;" parent="LDKQARjwoA2-dpLAdaMC-54" vertex="1">
                    <mxGeometry x="46" width="158" height="30" as="geometry">
                        <mxRectangle width="158" height="30" as="alternateBounds"/>
                    </mxGeometry>
                </mxCell>
                <mxCell id="LDKQARjwoA2-dpLAdaMC-57" value="" style="shape=partialRectangle;html=1;whiteSpace=wrap;collapsible=0;dropTarget=0;pointerEvents=1;fillColor=none;top=0;left=0;bottom=0;right=0;points=[[0,0.5],[1,0.5]];portConstraint=eastwest;fontColor=#000000;" parent="LDKQARjwoA2-dpLAdaMC-50" vertex="1">
                    <mxGeometry y="90" width="204" height="30" as="geometry"/>
                </mxCell>
                <mxCell id="LDKQARjwoA2-dpLAdaMC-58" value="3" style="shape=partialRectangle;html=1;whiteSpace=wrap;connectable=0;fillColor=#FFFFFF;top=0;left=0;bottom=0;right=0;overflow=hidden;pointerEvents=1;fontColor=#000000;" parent="LDKQARjwoA2-dpLAdaMC-57" vertex="1">
                    <mxGeometry width="46" height="30" as="geometry">
                        <mxRectangle width="46" height="30" as="alternateBounds"/>
                    </mxGeometry>
                </mxCell>
                <mxCell id="LDKQARjwoA2-dpLAdaMC-59" value="fk_user_ID: int" style="shape=partialRectangle;html=1;whiteSpace=wrap;connectable=0;fillColor=#FFFFFF;top=0;left=0;bottom=0;right=0;align=left;spacingLeft=6;overflow=hidden;pointerEvents=1;fontColor=#000000;" parent="LDKQARjwoA2-dpLAdaMC-57" vertex="1">
                    <mxGeometry x="46" width="158" height="30" as="geometry">
                        <mxRectangle width="158" height="30" as="alternateBounds"/>
                    </mxGeometry>
                </mxCell>
                <mxCell id="r_bpZWHaRCy2lEG5RAIA-48" value="" style="shape=partialRectangle;html=1;whiteSpace=wrap;collapsible=0;dropTarget=0;pointerEvents=1;fillColor=none;top=0;left=0;bottom=0;right=0;points=[[0,0.5],[1,0.5]];portConstraint=eastwest;fontColor=#000000;" parent="LDKQARjwoA2-dpLAdaMC-50" vertex="1">
                    <mxGeometry y="120" width="204" height="44" as="geometry"/>
                </mxCell>
                <mxCell id="r_bpZWHaRCy2lEG5RAIA-49" value="4" style="shape=partialRectangle;html=1;whiteSpace=wrap;connectable=0;fillColor=#FFFFFF;top=0;left=0;bottom=0;right=0;overflow=hidden;pointerEvents=1;fontColor=#000000;" parent="r_bpZWHaRCy2lEG5RAIA-48" vertex="1">
                    <mxGeometry width="46" height="44" as="geometry">
                        <mxRectangle width="46" height="44" as="alternateBounds"/>
                    </mxGeometry>
                </mxCell>
                <mxCell id="r_bpZWHaRCy2lEG5RAIA-50" value="frame_position_ coordinates_ID: varchar" style="shape=partialRectangle;html=1;whiteSpace=wrap;connectable=0;fillColor=#FFFFFF;top=0;left=0;bottom=0;right=0;align=left;spacingLeft=6;overflow=hidden;pointerEvents=1;fontColor=#000000;" parent="r_bpZWHaRCy2lEG5RAIA-48" vertex="1">
                    <mxGeometry x="46" width="158" height="44" as="geometry">
                        <mxRectangle width="158" height="44" as="alternateBounds"/>
                    </mxGeometry>
                </mxCell>
                <mxCell id="LDKQARjwoA2-dpLAdaMC-77" style="edgeStyle=orthogonalEdgeStyle;html=1;fontColor=#000000;startArrow=none;startFill=0;endArrow=ERoneToMany;endFill=0;strokeColor=#000000;exitX=1;exitY=0.5;exitDx=0;exitDy=0;entryX=0;entryY=0.5;entryDx=0;entryDy=0;" parent="4rfVpSqc5LY0Yn25zdl8-1" source="LDKQARjwoA2-dpLAdaMC-21" target="LDKQARjwoA2-dpLAdaMC-34" edge="1">
                    <mxGeometry relative="1" as="geometry">
                        <mxPoint x="60" y="891" as="targetPoint"/>
                        <mxPoint x="12" y="952" as="sourcePoint"/>
                        <Array as="points">
                            <mxPoint x="-144" y="943"/>
                            <mxPoint x="-144" y="870"/>
                        </Array>
                    </mxGeometry>
                </mxCell>
                <mxCell id="LDKQARjwoA2-dpLAdaMC-78" style="edgeStyle=orthogonalEdgeStyle;html=1;entryX=0;entryY=0.5;entryDx=0;entryDy=0;fontColor=#000000;startArrow=none;startFill=0;endArrow=ERoneToMany;endFill=0;strokeColor=#000000;exitX=1.005;exitY=0.775;exitDx=0;exitDy=0;exitPerimeter=0;" parent="4rfVpSqc5LY0Yn25zdl8-1" source="LDKQARjwoA2-dpLAdaMC-21" target="LDKQARjwoA2-dpLAdaMC-41" edge="1">
                    <mxGeometry relative="1" as="geometry">
                        <Array as="points">
                            <mxPoint x="-215" y="951"/>
                            <mxPoint x="-192" y="951"/>
                            <mxPoint x="-192" y="1051"/>
                        </Array>
                    </mxGeometry>
                </mxCell>
                <mxCell id="KNBlQUAVArYwgPWN0UJa-84" value="User" style="shape=table;startSize=30;container=1;collapsible=0;childLayout=tableLayout;fixedRows=1;rowLines=0;fontStyle=1;align=center;pointerEvents=1;fillColor=#d0cee2;strokeColor=#56517e;fontColor=#000000;" parent="4rfVpSqc5LY0Yn25zdl8-1" vertex="1">
                    <mxGeometry x="-684" y="816" width="240" height="540" as="geometry"/>
                </mxCell>
                <mxCell id="KNBlQUAVArYwgPWN0UJa-85" value="" style="shape=partialRectangle;html=1;whiteSpace=wrap;collapsible=0;dropTarget=0;pointerEvents=1;fillColor=none;top=0;left=0;bottom=1;right=0;points=[[0,0.5],[1,0.5]];portConstraint=eastwest;fontColor=#000000;" parent="KNBlQUAVArYwgPWN0UJa-84" vertex="1">
                    <mxGeometry y="30" width="240" height="30" as="geometry"/>
                </mxCell>
                <mxCell id="KNBlQUAVArYwgPWN0UJa-86" value="1" style="shape=partialRectangle;html=1;whiteSpace=wrap;connectable=0;fillColor=#FFFFFF;top=0;left=0;bottom=0;right=0;overflow=hidden;pointerEvents=1;fontColor=#000000;" parent="KNBlQUAVArYwgPWN0UJa-85" vertex="1">
                    <mxGeometry width="54" height="30" as="geometry">
                        <mxRectangle width="54" height="30" as="alternateBounds"/>
                    </mxGeometry>
                </mxCell>
                <mxCell id="KNBlQUAVArYwgPWN0UJa-87" value="user_ID: int" style="shape=partialRectangle;html=1;whiteSpace=wrap;connectable=0;fillColor=#FFFFFF;top=0;left=0;bottom=0;right=0;align=left;spacingLeft=6;overflow=hidden;pointerEvents=1;fontColor=#000000;" parent="KNBlQUAVArYwgPWN0UJa-85" vertex="1">
                    <mxGeometry x="54" width="186" height="30" as="geometry">
                        <mxRectangle width="186" height="30" as="alternateBounds"/>
                    </mxGeometry>
                </mxCell>
                <mxCell id="kX-r8yPTR8CkMUJhGRwU-0" value="" style="shape=partialRectangle;html=1;whiteSpace=wrap;collapsible=0;dropTarget=0;pointerEvents=1;fillColor=none;top=0;left=0;bottom=0;right=0;points=[[0,0.5],[1,0.5]];portConstraint=eastwest;fontColor=#000000;" parent="KNBlQUAVArYwgPWN0UJa-84" vertex="1">
                    <mxGeometry y="60" width="240" height="30" as="geometry"/>
                </mxCell>
                <mxCell id="kX-r8yPTR8CkMUJhGRwU-1" value="2" style="shape=partialRectangle;html=1;whiteSpace=wrap;connectable=0;fillColor=#FFFFFF;top=0;left=0;bottom=0;right=0;overflow=hidden;pointerEvents=1;fontColor=#000000;" parent="kX-r8yPTR8CkMUJhGRwU-0" vertex="1">
                    <mxGeometry width="54" height="30" as="geometry">
                        <mxRectangle width="54" height="30" as="alternateBounds"/>
                    </mxGeometry>
                </mxCell>
                <mxCell id="kX-r8yPTR8CkMUJhGRwU-2" value="first_name: varchar" style="shape=partialRectangle;html=1;whiteSpace=wrap;connectable=0;fillColor=#FFFFFF;top=0;left=0;bottom=0;right=0;align=left;spacingLeft=6;overflow=hidden;pointerEvents=1;fontColor=#000000;" parent="kX-r8yPTR8CkMUJhGRwU-0" vertex="1">
                    <mxGeometry x="54" width="186" height="30" as="geometry">
                        <mxRectangle width="186" height="30" as="alternateBounds"/>
                    </mxGeometry>
                </mxCell>
                <mxCell id="KNBlQUAVArYwgPWN0UJa-88" value="" style="shape=partialRectangle;html=1;whiteSpace=wrap;collapsible=0;dropTarget=0;pointerEvents=1;fillColor=none;top=0;left=0;bottom=0;right=0;points=[[0,0.5],[1,0.5]];portConstraint=eastwest;fontColor=#000000;" parent="KNBlQUAVArYwgPWN0UJa-84" vertex="1">
                    <mxGeometry y="90" width="240" height="30" as="geometry"/>
                </mxCell>
                <mxCell id="KNBlQUAVArYwgPWN0UJa-89" value="3" style="shape=partialRectangle;html=1;whiteSpace=wrap;connectable=0;fillColor=#FFFFFF;top=0;left=0;bottom=0;right=0;overflow=hidden;pointerEvents=1;fontColor=#000000;" parent="KNBlQUAVArYwgPWN0UJa-88" vertex="1">
                    <mxGeometry width="54" height="30" as="geometry">
                        <mxRectangle width="54" height="30" as="alternateBounds"/>
                    </mxGeometry>
                </mxCell>
                <mxCell id="KNBlQUAVArYwgPWN0UJa-90" value="last_name: varchar" style="shape=partialRectangle;html=1;whiteSpace=wrap;connectable=0;fillColor=#FFFFFF;top=0;left=0;bottom=0;right=0;align=left;spacingLeft=6;overflow=hidden;pointerEvents=1;fontColor=#000000;" parent="KNBlQUAVArYwgPWN0UJa-88" vertex="1">
                    <mxGeometry x="54" width="186" height="30" as="geometry">
                        <mxRectangle width="186" height="30" as="alternateBounds"/>
                    </mxGeometry>
                </mxCell>
                <mxCell id="kX-r8yPTR8CkMUJhGRwU-3" value="" style="shape=partialRectangle;html=1;whiteSpace=wrap;collapsible=0;dropTarget=0;pointerEvents=1;fillColor=none;top=0;left=0;bottom=0;right=0;points=[[0,0.5],[1,0.5]];portConstraint=eastwest;fontColor=#000000;" parent="KNBlQUAVArYwgPWN0UJa-84" vertex="1">
                    <mxGeometry y="120" width="240" height="30" as="geometry"/>
                </mxCell>
                <mxCell id="kX-r8yPTR8CkMUJhGRwU-4" value="4" style="shape=partialRectangle;html=1;whiteSpace=wrap;connectable=0;fillColor=#FFFFFF;top=0;left=0;bottom=0;right=0;overflow=hidden;pointerEvents=1;fontColor=#000000;" parent="kX-r8yPTR8CkMUJhGRwU-3" vertex="1">
                    <mxGeometry width="54" height="30" as="geometry">
                        <mxRectangle width="54" height="30" as="alternateBounds"/>
                    </mxGeometry>
                </mxCell>
                <mxCell id="kX-r8yPTR8CkMUJhGRwU-5" value="nick_name: varchar unique" style="shape=partialRectangle;html=1;whiteSpace=wrap;connectable=0;fillColor=#FFFFFF;top=0;left=0;bottom=0;right=0;align=left;spacingLeft=6;overflow=hidden;pointerEvents=1;fontColor=#000000;" parent="kX-r8yPTR8CkMUJhGRwU-3" vertex="1">
                    <mxGeometry x="54" width="186" height="30" as="geometry">
                        <mxRectangle width="186" height="30" as="alternateBounds"/>
                    </mxGeometry>
                </mxCell>
                <mxCell id="KNBlQUAVArYwgPWN0UJa-94" value="" style="shape=partialRectangle;html=1;whiteSpace=wrap;collapsible=0;dropTarget=0;pointerEvents=1;fillColor=none;top=0;left=0;bottom=0;right=0;points=[[0,0.5],[1,0.5]];portConstraint=eastwest;fontColor=#000000;" parent="KNBlQUAVArYwgPWN0UJa-84" vertex="1">
                    <mxGeometry y="150" width="240" height="30" as="geometry"/>
                </mxCell>
                <mxCell id="KNBlQUAVArYwgPWN0UJa-95" value="5" style="shape=partialRectangle;html=1;whiteSpace=wrap;connectable=0;fillColor=#FFFFFF;top=0;left=0;bottom=0;right=0;overflow=hidden;pointerEvents=1;fontColor=#000000;" parent="KNBlQUAVArYwgPWN0UJa-94" vertex="1">
                    <mxGeometry width="54" height="30" as="geometry">
                        <mxRectangle width="54" height="30" as="alternateBounds"/>
                    </mxGeometry>
                </mxCell>
                <mxCell id="KNBlQUAVArYwgPWN0UJa-96" value="password: varchar" style="shape=partialRectangle;html=1;whiteSpace=wrap;connectable=0;fillColor=#FFFFFF;top=0;left=0;bottom=0;right=0;align=left;spacingLeft=6;overflow=hidden;pointerEvents=1;fontColor=#000000;" parent="KNBlQUAVArYwgPWN0UJa-94" vertex="1">
                    <mxGeometry x="54" width="186" height="30" as="geometry">
                        <mxRectangle width="186" height="30" as="alternateBounds"/>
                    </mxGeometry>
                </mxCell>
                <mxCell id="KNBlQUAVArYwgPWN0UJa-97" value="" style="shape=partialRectangle;html=1;whiteSpace=wrap;collapsible=0;dropTarget=0;pointerEvents=1;fillColor=none;top=0;left=0;bottom=0;right=0;points=[[0,0.5],[1,0.5]];portConstraint=eastwest;fontColor=#000000;" parent="KNBlQUAVArYwgPWN0UJa-84" vertex="1">
                    <mxGeometry y="180" width="240" height="30" as="geometry"/>
                </mxCell>
                <mxCell id="KNBlQUAVArYwgPWN0UJa-98" value="6" style="shape=partialRectangle;html=1;whiteSpace=wrap;connectable=0;fillColor=#FFFFFF;top=0;left=0;bottom=0;right=0;overflow=hidden;pointerEvents=1;fontColor=#000000;" parent="KNBlQUAVArYwgPWN0UJa-97" vertex="1">
                    <mxGeometry width="54" height="30" as="geometry">
                        <mxRectangle width="54" height="30" as="alternateBounds"/>
                    </mxGeometry>
                </mxCell>
                <mxCell id="KNBlQUAVArYwgPWN0UJa-99" value="email: varchar unique" style="shape=partialRectangle;html=1;whiteSpace=wrap;connectable=0;fillColor=#FFFFFF;top=0;left=0;bottom=0;right=0;align=left;spacingLeft=6;overflow=hidden;pointerEvents=1;fontColor=#000000;" parent="KNBlQUAVArYwgPWN0UJa-97" vertex="1">
                    <mxGeometry x="54" width="186" height="30" as="geometry">
                        <mxRectangle width="186" height="30" as="alternateBounds"/>
                    </mxGeometry>
                </mxCell>
                <mxCell id="KNBlQUAVArYwgPWN0UJa-100" value="" style="shape=partialRectangle;html=1;whiteSpace=wrap;collapsible=0;dropTarget=0;pointerEvents=1;fillColor=none;top=0;left=0;bottom=1;right=0;points=[[0,0.5],[1,0.5]];portConstraint=eastwest;fontColor=#000000;" parent="KNBlQUAVArYwgPWN0UJa-84" vertex="1">
                    <mxGeometry y="210" width="240" height="30" as="geometry"/>
                </mxCell>
                <mxCell id="KNBlQUAVArYwgPWN0UJa-101" value="7" style="shape=partialRectangle;html=1;whiteSpace=wrap;connectable=0;fillColor=#FFFFFF;top=0;left=0;bottom=0;right=0;overflow=hidden;pointerEvents=1;fontColor=#000000;" parent="KNBlQUAVArYwgPWN0UJa-100" vertex="1">
                    <mxGeometry width="54" height="30" as="geometry">
                        <mxRectangle width="54" height="30" as="alternateBounds"/>
                    </mxGeometry>
                </mxCell>
                <mxCell id="KNBlQUAVArYwgPWN0UJa-102" value="phone_number: varchar unique" style="shape=partialRectangle;html=1;whiteSpace=wrap;connectable=0;fillColor=#FFFFFF;top=0;left=0;bottom=0;right=0;align=left;spacingLeft=6;overflow=hidden;pointerEvents=1;fontColor=#000000;" parent="KNBlQUAVArYwgPWN0UJa-100" vertex="1">
                    <mxGeometry x="54" width="186" height="30" as="geometry">
                        <mxRectangle width="186" height="30" as="alternateBounds"/>
                    </mxGeometry>
                </mxCell>
                <mxCell id="KNBlQUAVArYwgPWN0UJa-106" value="" style="shape=partialRectangle;html=1;whiteSpace=wrap;collapsible=0;dropTarget=0;pointerEvents=1;fillColor=none;top=0;left=0;bottom=1;right=0;points=[[0,0.5],[1,0.5]];portConstraint=eastwest;fontColor=#000000;" parent="KNBlQUAVArYwgPWN0UJa-84" vertex="1">
                    <mxGeometry y="240" width="240" height="30" as="geometry"/>
                </mxCell>
                <mxCell id="KNBlQUAVArYwgPWN0UJa-107" value="8" style="shape=partialRectangle;html=1;whiteSpace=wrap;connectable=0;fillColor=#FFFFFF;top=0;left=0;bottom=0;right=0;overflow=hidden;pointerEvents=1;fontColor=#000000;" parent="KNBlQUAVArYwgPWN0UJa-106" vertex="1">
                    <mxGeometry width="54" height="30" as="geometry">
                        <mxRectangle width="54" height="30" as="alternateBounds"/>
                    </mxGeometry>
                </mxCell>
                <mxCell id="KNBlQUAVArYwgPWN0UJa-108" value="gender : enum('Male', 'Female', 'Neither')" style="shape=partialRectangle;html=1;whiteSpace=wrap;connectable=0;fillColor=#FFFFFF;top=0;left=0;bottom=0;right=0;align=left;spacingLeft=6;overflow=hidden;pointerEvents=1;fontColor=#000000;" parent="KNBlQUAVArYwgPWN0UJa-106" vertex="1">
                    <mxGeometry x="54" width="186" height="30" as="geometry">
                        <mxRectangle width="186" height="30" as="alternateBounds"/>
                    </mxGeometry>
                </mxCell>
                <mxCell id="KNBlQUAVArYwgPWN0UJa-109" value="" style="shape=partialRectangle;html=1;whiteSpace=wrap;collapsible=0;dropTarget=0;pointerEvents=1;fillColor=none;top=0;left=0;bottom=1;right=0;points=[[0,0.5],[1,0.5]];portConstraint=eastwest;fontColor=#000000;" parent="KNBlQUAVArYwgPWN0UJa-84" vertex="1">
                    <mxGeometry y="270" width="240" height="30" as="geometry"/>
                </mxCell>
                <mxCell id="KNBlQUAVArYwgPWN0UJa-110" value="9" style="shape=partialRectangle;html=1;whiteSpace=wrap;connectable=0;fillColor=#FFFFFF;top=0;left=0;bottom=0;right=0;overflow=hidden;pointerEvents=1;fontColor=#000000;" parent="KNBlQUAVArYwgPWN0UJa-109" vertex="1">
                    <mxGeometry width="54" height="30" as="geometry">
                        <mxRectangle width="54" height="30" as="alternateBounds"/>
                    </mxGeometry>
                </mxCell>
                <mxCell id="KNBlQUAVArYwgPWN0UJa-111" value="language: varchar" style="shape=partialRectangle;html=1;whiteSpace=wrap;connectable=0;fillColor=#FFFFFF;top=0;left=0;bottom=0;right=0;align=left;spacingLeft=6;overflow=hidden;pointerEvents=1;fontColor=#000000;" parent="KNBlQUAVArYwgPWN0UJa-109" vertex="1">
                    <mxGeometry x="54" width="186" height="30" as="geometry">
                        <mxRectangle width="186" height="30" as="alternateBounds"/>
                    </mxGeometry>
                </mxCell>
                <mxCell id="KNBlQUAVArYwgPWN0UJa-112" value="" style="shape=partialRectangle;html=1;whiteSpace=wrap;collapsible=0;dropTarget=0;pointerEvents=1;fillColor=none;top=0;left=0;bottom=1;right=0;points=[[0,0.5],[1,0.5]];portConstraint=eastwest;fontColor=#000000;" parent="KNBlQUAVArYwgPWN0UJa-84" vertex="1">
                    <mxGeometry y="300" width="240" height="30" as="geometry"/>
                </mxCell>
                <mxCell id="KNBlQUAVArYwgPWN0UJa-113" value="10" style="shape=partialRectangle;html=1;whiteSpace=wrap;connectable=0;fillColor=#FFFFFF;top=0;left=0;bottom=0;right=0;overflow=hidden;pointerEvents=1;fontColor=#000000;" parent="KNBlQUAVArYwgPWN0UJa-112" vertex="1">
                    <mxGeometry width="54" height="30" as="geometry">
                        <mxRectangle width="54" height="30" as="alternateBounds"/>
                    </mxGeometry>
                </mxCell>
                <mxCell id="KNBlQUAVArYwgPWN0UJa-114" value="birthdate: date" style="shape=partialRectangle;html=1;whiteSpace=wrap;connectable=0;fillColor=#FFFFFF;top=0;left=0;bottom=0;right=0;align=left;spacingLeft=6;overflow=hidden;pointerEvents=1;fontColor=#000000;" parent="KNBlQUAVArYwgPWN0UJa-112" vertex="1">
                    <mxGeometry x="54" width="186" height="30" as="geometry">
                        <mxRectangle width="186" height="30" as="alternateBounds"/>
                    </mxGeometry>
                </mxCell>
                <mxCell id="KNBlQUAVArYwgPWN0UJa-115" value="" style="shape=partialRectangle;html=1;whiteSpace=wrap;collapsible=0;dropTarget=0;pointerEvents=1;fillColor=none;top=0;left=0;bottom=1;right=0;points=[[0,0.5],[1,0.5]];portConstraint=eastwest;fontColor=#000000;" parent="KNBlQUAVArYwgPWN0UJa-84" vertex="1">
                    <mxGeometry y="330" width="240" height="30" as="geometry"/>
                </mxCell>
                <mxCell id="KNBlQUAVArYwgPWN0UJa-116" value="11" style="shape=partialRectangle;html=1;whiteSpace=wrap;connectable=0;fillColor=#FFFFFF;top=0;left=0;bottom=0;right=0;overflow=hidden;pointerEvents=1;fontColor=#000000;" parent="KNBlQUAVArYwgPWN0UJa-115" vertex="1">
                    <mxGeometry width="54" height="30" as="geometry">
                        <mxRectangle width="54" height="30" as="alternateBounds"/>
                    </mxGeometry>
                </mxCell>
                <mxCell id="KNBlQUAVArYwgPWN0UJa-117" value="relationship_status: enum" style="shape=partialRectangle;html=1;whiteSpace=wrap;connectable=0;fillColor=#FFFFFF;top=0;left=0;bottom=0;right=0;align=left;spacingLeft=6;overflow=hidden;pointerEvents=1;fontColor=#000000;" parent="KNBlQUAVArYwgPWN0UJa-115" vertex="1">
                    <mxGeometry x="54" width="186" height="30" as="geometry">
                        <mxRectangle width="186" height="30" as="alternateBounds"/>
                    </mxGeometry>
                </mxCell>
                <mxCell id="KNBlQUAVArYwgPWN0UJa-118" value="" style="shape=partialRectangle;html=1;whiteSpace=wrap;collapsible=0;dropTarget=0;pointerEvents=1;fillColor=none;top=0;left=0;bottom=1;right=0;points=[[0,0.5],[1,0.5]];portConstraint=eastwest;fontColor=#000000;" parent="KNBlQUAVArYwgPWN0UJa-84" vertex="1">
                    <mxGeometry y="360" width="240" height="30" as="geometry"/>
                </mxCell>
                <mxCell id="KNBlQUAVArYwgPWN0UJa-119" value="12" style="shape=partialRectangle;html=1;whiteSpace=wrap;connectable=0;fillColor=#FFFFFF;top=0;left=0;bottom=0;right=0;overflow=hidden;pointerEvents=1;fontColor=#000000;" parent="KNBlQUAVArYwgPWN0UJa-118" vertex="1">
                    <mxGeometry width="54" height="30" as="geometry">
                        <mxRectangle width="54" height="30" as="alternateBounds"/>
                    </mxGeometry>
                </mxCell>
                <mxCell id="KNBlQUAVArYwgPWN0UJa-120" value="home_town: varchar" style="shape=partialRectangle;html=1;whiteSpace=wrap;connectable=0;fillColor=#FFFFFF;top=0;left=0;bottom=0;right=0;align=left;spacingLeft=6;overflow=hidden;pointerEvents=1;fontColor=#000000;" parent="KNBlQUAVArYwgPWN0UJa-118" vertex="1">
                    <mxGeometry x="54" width="186" height="30" as="geometry">
                        <mxRectangle width="186" height="30" as="alternateBounds"/>
                    </mxGeometry>
                </mxCell>
                <mxCell id="KNBlQUAVArYwgPWN0UJa-121" value="" style="shape=partialRectangle;html=1;whiteSpace=wrap;collapsible=0;dropTarget=0;pointerEvents=1;fillColor=none;top=0;left=0;bottom=1;right=0;points=[[0,0.5],[1,0.5]];portConstraint=eastwest;fontColor=#000000;" parent="KNBlQUAVArYwgPWN0UJa-84" vertex="1">
                    <mxGeometry y="390" width="240" height="30" as="geometry"/>
                </mxCell>
                <mxCell id="KNBlQUAVArYwgPWN0UJa-122" value="13" style="shape=partialRectangle;html=1;whiteSpace=wrap;connectable=0;fillColor=#FFFFFF;top=0;left=0;bottom=0;right=0;overflow=hidden;pointerEvents=1;fontColor=#000000;" parent="KNBlQUAVArYwgPWN0UJa-121" vertex="1">
                    <mxGeometry width="54" height="30" as="geometry">
                        <mxRectangle width="54" height="30" as="alternateBounds"/>
                    </mxGeometry>
                </mxCell>
                <mxCell id="KNBlQUAVArYwgPWN0UJa-123" value="current _city: varchar" style="shape=partialRectangle;html=1;whiteSpace=wrap;connectable=0;fillColor=#FFFFFF;top=0;left=0;bottom=0;right=0;align=left;spacingLeft=6;overflow=hidden;pointerEvents=1;fontColor=#000000;" parent="KNBlQUAVArYwgPWN0UJa-121" vertex="1">
                    <mxGeometry x="54" width="186" height="30" as="geometry">
                        <mxRectangle width="186" height="30" as="alternateBounds"/>
                    </mxGeometry>
                </mxCell>
                <mxCell id="KNBlQUAVArYwgPWN0UJa-124" value="" style="shape=partialRectangle;html=1;whiteSpace=wrap;collapsible=0;dropTarget=0;pointerEvents=1;fillColor=none;top=0;left=0;bottom=1;right=0;points=[[0,0.5],[1,0.5]];portConstraint=eastwest;fontColor=#000000;" parent="KNBlQUAVArYwgPWN0UJa-84" vertex="1">
                    <mxGeometry y="420" width="240" height="30" as="geometry"/>
                </mxCell>
                <mxCell id="KNBlQUAVArYwgPWN0UJa-125" value="14" style="shape=partialRectangle;html=1;whiteSpace=wrap;connectable=0;fillColor=#FFFFFF;top=0;left=0;bottom=0;right=0;overflow=hidden;pointerEvents=1;fontColor=#000000;" parent="KNBlQUAVArYwgPWN0UJa-124" vertex="1">
                    <mxGeometry width="54" height="30" as="geometry">
                        <mxRectangle width="54" height="30" as="alternateBounds"/>
                    </mxGeometry>
                </mxCell>
                <mxCell id="KNBlQUAVArYwgPWN0UJa-126" value="fk_profile_ID: int" style="shape=partialRectangle;html=1;whiteSpace=wrap;connectable=0;fillColor=#FFFFFF;top=0;left=0;bottom=0;right=0;align=left;spacingLeft=6;overflow=hidden;pointerEvents=1;fontColor=#000000;" parent="KNBlQUAVArYwgPWN0UJa-124" vertex="1">
                    <mxGeometry x="54" width="186" height="30" as="geometry">
                        <mxRectangle width="186" height="30" as="alternateBounds"/>
                    </mxGeometry>
                </mxCell>
                <mxCell id="KNBlQUAVArYwgPWN0UJa-127" value="" style="shape=partialRectangle;html=1;whiteSpace=wrap;collapsible=0;dropTarget=0;pointerEvents=1;fillColor=none;top=0;left=0;bottom=1;right=0;points=[[0,0.5],[1,0.5]];portConstraint=eastwest;fontColor=#000000;" parent="KNBlQUAVArYwgPWN0UJa-84" vertex="1">
                    <mxGeometry y="450" width="240" height="30" as="geometry"/>
                </mxCell>
                <mxCell id="KNBlQUAVArYwgPWN0UJa-128" value="15" style="shape=partialRectangle;html=1;whiteSpace=wrap;connectable=0;fillColor=#FFFFFF;top=0;left=0;bottom=0;right=0;overflow=hidden;pointerEvents=1;fontColor=#000000;" parent="KNBlQUAVArYwgPWN0UJa-127" vertex="1">
                    <mxGeometry width="54" height="30" as="geometry">
                        <mxRectangle width="54" height="30" as="alternateBounds"/>
                    </mxGeometry>
                </mxCell>
                <mxCell id="KNBlQUAVArYwgPWN0UJa-129" value="&lt;span&gt;fk_work_experience_ID: int&lt;/span&gt;" style="shape=partialRectangle;html=1;whiteSpace=wrap;connectable=0;fillColor=#FFFFFF;top=0;left=0;bottom=0;right=0;align=left;spacingLeft=6;overflow=hidden;pointerEvents=1;fontColor=#000000;" parent="KNBlQUAVArYwgPWN0UJa-127" vertex="1">
                    <mxGeometry x="54" width="186" height="30" as="geometry">
                        <mxRectangle width="186" height="30" as="alternateBounds"/>
                    </mxGeometry>
                </mxCell>
                <mxCell id="r_bpZWHaRCy2lEG5RAIA-51" value="" style="shape=partialRectangle;html=1;whiteSpace=wrap;collapsible=0;dropTarget=0;pointerEvents=1;fillColor=none;top=0;left=0;bottom=1;right=0;points=[[0,0.5],[1,0.5]];portConstraint=eastwest;fontColor=#000000;" parent="KNBlQUAVArYwgPWN0UJa-84" vertex="1">
                    <mxGeometry y="480" width="240" height="30" as="geometry"/>
                </mxCell>
                <mxCell id="r_bpZWHaRCy2lEG5RAIA-52" value="16" style="shape=partialRectangle;html=1;whiteSpace=wrap;connectable=0;fillColor=#FFFFFF;top=0;left=0;bottom=0;right=0;overflow=hidden;pointerEvents=1;fontColor=#000000;" parent="r_bpZWHaRCy2lEG5RAIA-51" vertex="1">
                    <mxGeometry width="54" height="30" as="geometry">
                        <mxRectangle width="54" height="30" as="alternateBounds"/>
                    </mxGeometry>
                </mxCell>
                <mxCell id="r_bpZWHaRCy2lEG5RAIA-53" value="&lt;span&gt;fk_education_ID: int&lt;/span&gt;" style="shape=partialRectangle;html=1;whiteSpace=wrap;connectable=0;fillColor=#FFFFFF;top=0;left=0;bottom=0;right=0;align=left;spacingLeft=6;overflow=hidden;pointerEvents=1;fontColor=#000000;" parent="r_bpZWHaRCy2lEG5RAIA-51" vertex="1">
                    <mxGeometry x="54" width="186" height="30" as="geometry">
                        <mxRectangle width="186" height="30" as="alternateBounds"/>
                    </mxGeometry>
                </mxCell>
                <mxCell id="KNBlQUAVArYwgPWN0UJa-130" value="" style="shape=partialRectangle;html=1;whiteSpace=wrap;collapsible=0;dropTarget=0;pointerEvents=1;fillColor=none;top=0;left=0;bottom=1;right=0;points=[[0,0.5],[1,0.5]];portConstraint=eastwest;fontColor=#000000;" parent="KNBlQUAVArYwgPWN0UJa-84" vertex="1">
                    <mxGeometry y="510" width="240" height="30" as="geometry"/>
                </mxCell>
                <mxCell id="KNBlQUAVArYwgPWN0UJa-131" value="17" style="shape=partialRectangle;html=1;whiteSpace=wrap;connectable=0;fillColor=#FFFFFF;top=0;left=0;bottom=0;right=0;overflow=hidden;pointerEvents=1;fontColor=#000000;" parent="KNBlQUAVArYwgPWN0UJa-130" vertex="1">
                    <mxGeometry width="54" height="30" as="geometry">
                        <mxRectangle width="54" height="30" as="alternateBounds"/>
                    </mxGeometry>
                </mxCell>
                <mxCell id="KNBlQUAVArYwgPWN0UJa-132" value="fk_family_members_ID: int" style="shape=partialRectangle;html=1;whiteSpace=wrap;connectable=0;fillColor=#FFFFFF;top=0;left=0;bottom=0;right=0;align=left;spacingLeft=6;overflow=hidden;pointerEvents=1;fontColor=#000000;" parent="KNBlQUAVArYwgPWN0UJa-130" vertex="1">
                    <mxGeometry x="54" width="186" height="30" as="geometry">
                        <mxRectangle width="186" height="30" as="alternateBounds"/>
                    </mxGeometry>
                </mxCell>
                <mxCell id="KNBlQUAVArYwgPWN0UJa-133" value="Work Experience" style="shape=table;startSize=30;container=1;collapsible=0;childLayout=tableLayout;fixedRows=1;rowLines=0;fontStyle=1;align=center;pointerEvents=1;fillColor=#d0cee2;strokeColor=#56517e;fontColor=#000000;" parent="4rfVpSqc5LY0Yn25zdl8-1" vertex="1">
                    <mxGeometry x="-425" y="1105" width="221" height="150" as="geometry"/>
                </mxCell>
                <mxCell id="KNBlQUAVArYwgPWN0UJa-134" value="" style="shape=partialRectangle;html=1;whiteSpace=wrap;collapsible=0;dropTarget=0;pointerEvents=1;fillColor=none;top=0;left=0;bottom=1;right=0;points=[[0,0.5],[1,0.5]];portConstraint=eastwest;fontColor=#000000;" parent="KNBlQUAVArYwgPWN0UJa-133" vertex="1">
                    <mxGeometry y="30" width="221" height="30" as="geometry"/>
                </mxCell>
                <mxCell id="KNBlQUAVArYwgPWN0UJa-135" value="1" style="shape=partialRectangle;html=1;whiteSpace=wrap;connectable=0;fillColor=#FFFFFF;top=0;left=0;bottom=0;right=0;overflow=hidden;pointerEvents=1;fontColor=#000000;strokeColor=#FFFFFF;" parent="KNBlQUAVArYwgPWN0UJa-134" vertex="1">
                    <mxGeometry width="48" height="30" as="geometry">
                        <mxRectangle width="48" height="30" as="alternateBounds"/>
                    </mxGeometry>
                </mxCell>
                <mxCell id="KNBlQUAVArYwgPWN0UJa-136" value="work_experience_ID: int" style="shape=partialRectangle;html=1;whiteSpace=wrap;connectable=0;fillColor=#FFFFFF;top=0;left=0;bottom=0;right=0;align=left;spacingLeft=6;overflow=hidden;pointerEvents=1;fontColor=#000000;strokeColor=#FFFFFF;" parent="KNBlQUAVArYwgPWN0UJa-134" vertex="1">
                    <mxGeometry x="48" width="173" height="30" as="geometry">
                        <mxRectangle width="173" height="30" as="alternateBounds"/>
                    </mxGeometry>
                </mxCell>
                <mxCell id="KNBlQUAVArYwgPWN0UJa-137" value="" style="shape=partialRectangle;html=1;whiteSpace=wrap;collapsible=0;dropTarget=0;pointerEvents=1;fillColor=#FFFFFF;top=0;left=0;bottom=0;right=0;points=[[0,0.5],[1,0.5]];portConstraint=eastwest;fontColor=#000000;" parent="KNBlQUAVArYwgPWN0UJa-133" vertex="1">
                    <mxGeometry y="60" width="221" height="30" as="geometry"/>
                </mxCell>
                <mxCell id="KNBlQUAVArYwgPWN0UJa-138" value="2" style="shape=partialRectangle;html=1;whiteSpace=wrap;connectable=0;fillColor=none;top=0;left=0;bottom=0;right=0;overflow=hidden;pointerEvents=1;fontColor=#000000;strokeColor=#FFFFFF;" parent="KNBlQUAVArYwgPWN0UJa-137" vertex="1">
                    <mxGeometry width="48" height="30" as="geometry">
                        <mxRectangle width="48" height="30" as="alternateBounds"/>
                    </mxGeometry>
                </mxCell>
                <mxCell id="KNBlQUAVArYwgPWN0UJa-139" value="&lt;span&gt;current_workplace: varchar&lt;/span&gt;" style="shape=partialRectangle;html=1;whiteSpace=wrap;connectable=0;fillColor=none;top=0;left=0;bottom=0;right=0;align=left;spacingLeft=6;overflow=hidden;pointerEvents=1;fontColor=#000000;strokeColor=#FFFFFF;" parent="KNBlQUAVArYwgPWN0UJa-137" vertex="1">
                    <mxGeometry x="48" width="173" height="30" as="geometry">
                        <mxRectangle width="173" height="30" as="alternateBounds"/>
                    </mxGeometry>
                </mxCell>
                <mxCell id="KNBlQUAVArYwgPWN0UJa-140" value="" style="shape=partialRectangle;html=1;whiteSpace=wrap;collapsible=0;dropTarget=0;pointerEvents=1;fillColor=none;top=0;left=0;bottom=0;right=0;points=[[0,0.5],[1,0.5]];portConstraint=eastwest;fontColor=#000000;" parent="KNBlQUAVArYwgPWN0UJa-133" vertex="1">
                    <mxGeometry y="90" width="221" height="30" as="geometry"/>
                </mxCell>
                <mxCell id="KNBlQUAVArYwgPWN0UJa-141" value="3" style="shape=partialRectangle;html=1;whiteSpace=wrap;connectable=0;fillColor=#FFFFFF;top=0;left=0;bottom=0;right=0;overflow=hidden;pointerEvents=1;fontColor=#000000;strokeColor=#FFFFFF;" parent="KNBlQUAVArYwgPWN0UJa-140" vertex="1">
                    <mxGeometry width="48" height="30" as="geometry">
                        <mxRectangle width="48" height="30" as="alternateBounds"/>
                    </mxGeometry>
                </mxCell>
                <mxCell id="KNBlQUAVArYwgPWN0UJa-142" value="&lt;span&gt;previous_workplace: varchar&lt;/span&gt;" style="shape=partialRectangle;html=1;whiteSpace=wrap;connectable=0;fillColor=#FFFFFF;top=0;left=0;bottom=0;right=0;align=left;spacingLeft=6;overflow=hidden;pointerEvents=1;fontColor=#000000;strokeColor=#FFFFFF;" parent="KNBlQUAVArYwgPWN0UJa-140" vertex="1">
                    <mxGeometry x="48" width="173" height="30" as="geometry">
                        <mxRectangle width="173" height="30" as="alternateBounds"/>
                    </mxGeometry>
                </mxCell>
                <mxCell id="KNBlQUAVArYwgPWN0UJa-143" value="" style="shape=partialRectangle;html=1;whiteSpace=wrap;collapsible=0;dropTarget=0;pointerEvents=1;fillColor=none;top=0;left=0;bottom=0;right=0;points=[[0,0.5],[1,0.5]];portConstraint=eastwest;fontColor=#000000;" parent="KNBlQUAVArYwgPWN0UJa-133" vertex="1">
                    <mxGeometry y="120" width="221" height="30" as="geometry"/>
                </mxCell>
                <mxCell id="KNBlQUAVArYwgPWN0UJa-144" value="4" style="shape=partialRectangle;html=1;whiteSpace=wrap;connectable=0;fillColor=#FFFFFF;top=0;left=0;bottom=0;right=0;overflow=hidden;pointerEvents=1;fontColor=#000000;strokeColor=#FFFFFF;" parent="KNBlQUAVArYwgPWN0UJa-143" vertex="1">
                    <mxGeometry width="48" height="30" as="geometry">
                        <mxRectangle width="48" height="30" as="alternateBounds"/>
                    </mxGeometry>
                </mxCell>
                <mxCell id="KNBlQUAVArYwgPWN0UJa-145" value="&lt;span&gt;from_to: varchar&lt;/span&gt;" style="shape=partialRectangle;html=1;whiteSpace=wrap;connectable=0;fillColor=#FFFFFF;top=0;left=0;bottom=0;right=0;align=left;spacingLeft=6;overflow=hidden;pointerEvents=1;fontColor=#000000;strokeColor=#FFFFFF;" parent="KNBlQUAVArYwgPWN0UJa-143" vertex="1">
                    <mxGeometry x="48" width="173" height="30" as="geometry">
                        <mxRectangle width="173" height="30" as="alternateBounds"/>
                    </mxGeometry>
                </mxCell>
                <mxCell id="KNBlQUAVArYwgPWN0UJa-146" value="education" style="shape=table;startSize=30;container=1;collapsible=0;childLayout=tableLayout;fixedRows=1;rowLines=0;fontStyle=1;align=center;pointerEvents=1;fillColor=#d0cee2;strokeColor=#56517e;fontColor=#000000;" parent="4rfVpSqc5LY0Yn25zdl8-1" vertex="1">
                    <mxGeometry x="-420" y="1279" width="192" height="150" as="geometry"/>
                </mxCell>
                <mxCell id="KNBlQUAVArYwgPWN0UJa-147" value="" style="shape=partialRectangle;html=1;whiteSpace=wrap;collapsible=0;dropTarget=0;pointerEvents=1;fillColor=none;top=0;left=0;bottom=1;right=0;points=[[0,0.5],[1,0.5]];portConstraint=eastwest;fontColor=#000000;" parent="KNBlQUAVArYwgPWN0UJa-146" vertex="1">
                    <mxGeometry y="30" width="192" height="30" as="geometry"/>
                </mxCell>
                <mxCell id="KNBlQUAVArYwgPWN0UJa-148" value="1" style="shape=partialRectangle;html=1;whiteSpace=wrap;connectable=0;fillColor=#FFFFFF;top=0;left=0;bottom=0;right=0;overflow=hidden;pointerEvents=1;fontColor=#000000;" parent="KNBlQUAVArYwgPWN0UJa-147" vertex="1">
                    <mxGeometry width="42" height="30" as="geometry">
                        <mxRectangle width="42" height="30" as="alternateBounds"/>
                    </mxGeometry>
                </mxCell>
                <mxCell id="KNBlQUAVArYwgPWN0UJa-149" value="education_ID: int" style="shape=partialRectangle;html=1;whiteSpace=wrap;connectable=0;fillColor=#FFFFFF;top=0;left=0;bottom=0;right=0;align=left;spacingLeft=6;overflow=hidden;pointerEvents=1;fontColor=#000000;" parent="KNBlQUAVArYwgPWN0UJa-147" vertex="1">
                    <mxGeometry x="42" width="150" height="30" as="geometry">
                        <mxRectangle width="150" height="30" as="alternateBounds"/>
                    </mxGeometry>
                </mxCell>
                <mxCell id="KNBlQUAVArYwgPWN0UJa-150" value="" style="shape=partialRectangle;html=1;whiteSpace=wrap;collapsible=0;dropTarget=0;pointerEvents=1;fillColor=none;top=0;left=0;bottom=0;right=0;points=[[0,0.5],[1,0.5]];portConstraint=eastwest;fontColor=#000000;" parent="KNBlQUAVArYwgPWN0UJa-146" vertex="1">
                    <mxGeometry y="60" width="192" height="30" as="geometry"/>
                </mxCell>
                <mxCell id="KNBlQUAVArYwgPWN0UJa-151" value="2" style="shape=partialRectangle;html=1;whiteSpace=wrap;connectable=0;fillColor=#FFFFFF;top=0;left=0;bottom=0;right=0;overflow=hidden;pointerEvents=1;fontColor=#000000;" parent="KNBlQUAVArYwgPWN0UJa-150" vertex="1">
                    <mxGeometry width="42" height="30" as="geometry">
                        <mxRectangle width="42" height="30" as="alternateBounds"/>
                    </mxGeometry>
                </mxCell>
                <mxCell id="KNBlQUAVArYwgPWN0UJa-152" value="school_name: varchar" style="shape=partialRectangle;html=1;whiteSpace=wrap;connectable=0;fillColor=#FFFFFF;top=0;left=0;bottom=0;right=0;align=left;spacingLeft=6;overflow=hidden;pointerEvents=1;fontColor=#000000;" parent="KNBlQUAVArYwgPWN0UJa-150" vertex="1">
                    <mxGeometry x="42" width="150" height="30" as="geometry">
                        <mxRectangle width="150" height="30" as="alternateBounds"/>
                    </mxGeometry>
                </mxCell>
                <mxCell id="KNBlQUAVArYwgPWN0UJa-153" value="" style="shape=partialRectangle;html=1;whiteSpace=wrap;collapsible=0;dropTarget=0;pointerEvents=1;fillColor=none;top=0;left=0;bottom=0;right=0;points=[[0,0.5],[1,0.5]];portConstraint=eastwest;fontColor=#000000;" parent="KNBlQUAVArYwgPWN0UJa-146" vertex="1">
                    <mxGeometry y="90" width="192" height="30" as="geometry"/>
                </mxCell>
                <mxCell id="KNBlQUAVArYwgPWN0UJa-154" value="3" style="shape=partialRectangle;html=1;whiteSpace=wrap;connectable=0;fillColor=#FFFFFF;top=0;left=0;bottom=0;right=0;overflow=hidden;pointerEvents=1;fontColor=#000000;" parent="KNBlQUAVArYwgPWN0UJa-153" vertex="1">
                    <mxGeometry width="42" height="30" as="geometry">
                        <mxRectangle width="42" height="30" as="alternateBounds"/>
                    </mxGeometry>
                </mxCell>
                <mxCell id="KNBlQUAVArYwgPWN0UJa-155" value="university_name: varchar" style="shape=partialRectangle;html=1;whiteSpace=wrap;connectable=0;fillColor=#FFFFFF;top=0;left=0;bottom=0;right=0;align=left;spacingLeft=6;overflow=hidden;pointerEvents=1;fontColor=#000000;" parent="KNBlQUAVArYwgPWN0UJa-153" vertex="1">
                    <mxGeometry x="42" width="150" height="30" as="geometry">
                        <mxRectangle width="150" height="30" as="alternateBounds"/>
                    </mxGeometry>
                </mxCell>
                <mxCell id="KNBlQUAVArYwgPWN0UJa-156" value="" style="shape=partialRectangle;html=1;whiteSpace=wrap;collapsible=0;dropTarget=0;pointerEvents=1;fillColor=none;top=0;left=0;bottom=1;right=0;points=[[0,0.5],[1,0.5]];portConstraint=eastwest;fontColor=#000000;" parent="KNBlQUAVArYwgPWN0UJa-146" vertex="1">
                    <mxGeometry y="120" width="192" height="30" as="geometry"/>
                </mxCell>
                <mxCell id="KNBlQUAVArYwgPWN0UJa-157" value="4" style="shape=partialRectangle;html=1;whiteSpace=wrap;connectable=0;fillColor=#FFFFFF;top=0;left=0;bottom=0;right=0;overflow=hidden;pointerEvents=1;fontColor=#000000;" parent="KNBlQUAVArYwgPWN0UJa-156" vertex="1">
                    <mxGeometry width="42" height="30" as="geometry">
                        <mxRectangle width="42" height="30" as="alternateBounds"/>
                    </mxGeometry>
                </mxCell>
                <mxCell id="KNBlQUAVArYwgPWN0UJa-158" value="from_to: varchar" style="shape=partialRectangle;html=1;whiteSpace=wrap;connectable=0;fillColor=#FFFFFF;top=0;left=0;bottom=0;right=0;align=left;spacingLeft=6;overflow=hidden;pointerEvents=1;fontColor=#000000;" parent="KNBlQUAVArYwgPWN0UJa-156" vertex="1">
                    <mxGeometry x="42" width="150" height="30" as="geometry">
                        <mxRectangle width="150" height="30" as="alternateBounds"/>
                    </mxGeometry>
                </mxCell>
                <mxCell id="KNBlQUAVArYwgPWN0UJa-159" value="Family members" style="shape=table;startSize=30;container=1;collapsible=0;childLayout=tableLayout;fixedRows=1;rowLines=0;fontStyle=1;align=center;pointerEvents=1;fillColor=#d0cee2;strokeColor=#56517e;fontColor=#000000;" parent="4rfVpSqc5LY0Yn25zdl8-1" vertex="1">
                    <mxGeometry x="-780" y="1500" width="192" height="120" as="geometry"/>
                </mxCell>
                <mxCell id="KNBlQUAVArYwgPWN0UJa-160" value="" style="shape=partialRectangle;html=1;whiteSpace=wrap;collapsible=0;dropTarget=0;pointerEvents=1;fillColor=none;top=0;left=0;bottom=1;right=0;points=[[0,0.5],[1,0.5]];portConstraint=eastwest;fontColor=#000000;" parent="KNBlQUAVArYwgPWN0UJa-159" vertex="1">
                    <mxGeometry y="30" width="192" height="30" as="geometry"/>
                </mxCell>
                <mxCell id="KNBlQUAVArYwgPWN0UJa-161" value="1" style="shape=partialRectangle;html=1;whiteSpace=wrap;connectable=0;fillColor=#FFFFFF;top=0;left=0;bottom=0;right=0;overflow=hidden;pointerEvents=1;fontColor=#000000;" parent="KNBlQUAVArYwgPWN0UJa-160" vertex="1">
                    <mxGeometry width="42" height="30" as="geometry">
                        <mxRectangle width="42" height="30" as="alternateBounds"/>
                    </mxGeometry>
                </mxCell>
                <mxCell id="KNBlQUAVArYwgPWN0UJa-162" value="family_members_ID: int" style="shape=partialRectangle;html=1;whiteSpace=wrap;connectable=0;fillColor=#FFFFFF;top=0;left=0;bottom=0;right=0;align=left;spacingLeft=6;overflow=hidden;pointerEvents=1;fontColor=#000000;" parent="KNBlQUAVArYwgPWN0UJa-160" vertex="1">
                    <mxGeometry x="42" width="150" height="30" as="geometry">
                        <mxRectangle width="150" height="30" as="alternateBounds"/>
                    </mxGeometry>
                </mxCell>
                <mxCell id="KNBlQUAVArYwgPWN0UJa-163" value="" style="shape=partialRectangle;html=1;whiteSpace=wrap;collapsible=0;dropTarget=0;pointerEvents=1;fillColor=none;top=0;left=0;bottom=0;right=0;points=[[0,0.5],[1,0.5]];portConstraint=eastwest;fontColor=#000000;" parent="KNBlQUAVArYwgPWN0UJa-159" vertex="1">
                    <mxGeometry y="60" width="192" height="30" as="geometry"/>
                </mxCell>
                <mxCell id="KNBlQUAVArYwgPWN0UJa-164" value="2" style="shape=partialRectangle;html=1;whiteSpace=wrap;connectable=0;fillColor=#FFFFFF;top=0;left=0;bottom=0;right=0;overflow=hidden;pointerEvents=1;fontColor=#000000;" parent="KNBlQUAVArYwgPWN0UJa-163" vertex="1">
                    <mxGeometry width="42" height="30" as="geometry">
                        <mxRectangle width="42" height="30" as="alternateBounds"/>
                    </mxGeometry>
                </mxCell>
                <mxCell id="KNBlQUAVArYwgPWN0UJa-165" value="&lt;span&gt;name: varchar&lt;/span&gt;" style="shape=partialRectangle;html=1;whiteSpace=wrap;connectable=0;fillColor=#FFFFFF;top=0;left=0;bottom=0;right=0;align=left;spacingLeft=6;overflow=hidden;pointerEvents=1;fontColor=#000000;" parent="KNBlQUAVArYwgPWN0UJa-163" vertex="1">
                    <mxGeometry x="42" width="150" height="30" as="geometry">
                        <mxRectangle width="150" height="30" as="alternateBounds"/>
                    </mxGeometry>
                </mxCell>
                <mxCell id="KNBlQUAVArYwgPWN0UJa-166" value="" style="shape=partialRectangle;html=1;whiteSpace=wrap;collapsible=0;dropTarget=0;pointerEvents=1;fillColor=none;top=0;left=0;bottom=0;right=0;points=[[0,0.5],[1,0.5]];portConstraint=eastwest;fontColor=#000000;" parent="KNBlQUAVArYwgPWN0UJa-159" vertex="1">
                    <mxGeometry y="90" width="192" height="30" as="geometry"/>
                </mxCell>
                <mxCell id="KNBlQUAVArYwgPWN0UJa-167" value="3" style="shape=partialRectangle;html=1;whiteSpace=wrap;connectable=0;fillColor=#FFFFFF;top=0;left=0;bottom=0;right=0;overflow=hidden;pointerEvents=1;fontColor=#000000;" parent="KNBlQUAVArYwgPWN0UJa-166" vertex="1">
                    <mxGeometry width="42" height="30" as="geometry">
                        <mxRectangle width="42" height="30" as="alternateBounds"/>
                    </mxGeometry>
                </mxCell>
                <mxCell id="KNBlQUAVArYwgPWN0UJa-168" value="&lt;span&gt;relationship: varchar&lt;/span&gt;" style="shape=partialRectangle;html=1;whiteSpace=wrap;connectable=0;fillColor=#FFFFFF;top=0;left=0;bottom=0;right=0;align=left;spacingLeft=6;overflow=hidden;pointerEvents=1;fontColor=#000000;" parent="KNBlQUAVArYwgPWN0UJa-166" vertex="1">
                    <mxGeometry x="42" width="150" height="30" as="geometry">
                        <mxRectangle width="150" height="30" as="alternateBounds"/>
                    </mxGeometry>
                </mxCell>
                <mxCell id="KNBlQUAVArYwgPWN0UJa-169" style="edgeStyle=orthogonalEdgeStyle;html=1;fontColor=#FFFFFF;startArrow=none;startFill=0;endArrow=ERoneToMany;endFill=0;strokeColor=#000000;entryX=0;entryY=0.5;entryDx=0;entryDy=0;" parent="4rfVpSqc5LY0Yn25zdl8-1" source="KNBlQUAVArYwgPWN0UJa-124" target="KNBlQUAVArYwgPWN0UJa-134" edge="1">
                    <mxGeometry relative="1" as="geometry">
                        <mxPoint x="-432" y="1141" as="targetPoint"/>
                    </mxGeometry>
                </mxCell>
                <mxCell id="KNBlQUAVArYwgPWN0UJa-170" style="edgeStyle=orthogonalEdgeStyle;html=1;entryX=0;entryY=0.5;entryDx=0;entryDy=0;fontColor=#FFFFFF;startArrow=none;startFill=0;endArrow=ERoneToMany;endFill=0;strokeColor=#000000;" parent="4rfVpSqc5LY0Yn25zdl8-1" source="KNBlQUAVArYwgPWN0UJa-127" target="KNBlQUAVArYwgPWN0UJa-147" edge="1">
                    <mxGeometry relative="1" as="geometry"/>
                </mxCell>
                <mxCell id="KNBlQUAVArYwgPWN0UJa-171" style="edgeStyle=orthogonalEdgeStyle;html=1;entryX=0;entryY=0.5;entryDx=0;entryDy=0;fontColor=#FFFFFF;startArrow=none;startFill=0;endArrow=ERoneToMany;endFill=0;strokeColor=#000000;" parent="4rfVpSqc5LY0Yn25zdl8-1" source="KNBlQUAVArYwgPWN0UJa-130" target="KNBlQUAVArYwgPWN0UJa-160" edge="1">
                    <mxGeometry relative="1" as="geometry"/>
                </mxCell>
                <mxCell id="r_bpZWHaRCy2lEG5RAIA-0" value="previous_Workplace_from_to" style="shape=table;startSize=30;container=1;collapsible=0;childLayout=tableLayout;fixedRows=1;rowLines=0;fontStyle=1;align=center;pointerEvents=1;fillColor=#d0cee2;strokeColor=#56517e;fontColor=#000000;" parent="4rfVpSqc5LY0Yn25zdl8-1" vertex="1">
                    <mxGeometry x="-84" y="1200" width="221" height="180" as="geometry"/>
                </mxCell>
                <mxCell id="r_bpZWHaRCy2lEG5RAIA-1" value="" style="shape=partialRectangle;html=1;whiteSpace=wrap;collapsible=0;dropTarget=0;pointerEvents=1;fillColor=none;top=0;left=0;bottom=1;right=0;points=[[0,0.5],[1,0.5]];portConstraint=eastwest;fontColor=#000000;" parent="r_bpZWHaRCy2lEG5RAIA-0" vertex="1">
                    <mxGeometry y="30" width="221" height="30" as="geometry"/>
                </mxCell>
                <mxCell id="r_bpZWHaRCy2lEG5RAIA-2" value="1" style="shape=partialRectangle;html=1;whiteSpace=wrap;connectable=0;fillColor=#FFFFFF;top=0;left=0;bottom=0;right=0;overflow=hidden;pointerEvents=1;fontColor=#000000;" parent="r_bpZWHaRCy2lEG5RAIA-1" vertex="1">
                    <mxGeometry width="48" height="30" as="geometry">
                        <mxRectangle width="48" height="30" as="alternateBounds"/>
                    </mxGeometry>
                </mxCell>
                <mxCell id="r_bpZWHaRCy2lEG5RAIA-3" value="previous_workplace_ID: int" style="shape=partialRectangle;html=1;whiteSpace=wrap;connectable=0;fillColor=#FFFFFF;top=0;left=0;bottom=0;right=0;align=left;spacingLeft=6;overflow=hidden;pointerEvents=1;fontColor=#000000;" parent="r_bpZWHaRCy2lEG5RAIA-1" vertex="1">
                    <mxGeometry x="48" width="173" height="30" as="geometry">
                        <mxRectangle width="173" height="30" as="alternateBounds"/>
                    </mxGeometry>
                </mxCell>
                <mxCell id="r_bpZWHaRCy2lEG5RAIA-4" value="" style="shape=partialRectangle;html=1;whiteSpace=wrap;collapsible=0;dropTarget=0;pointerEvents=1;fillColor=none;top=0;left=0;bottom=0;right=0;points=[[0,0.5],[1,0.5]];portConstraint=eastwest;fontColor=#000000;" parent="r_bpZWHaRCy2lEG5RAIA-0" vertex="1">
                    <mxGeometry y="60" width="221" height="30" as="geometry"/>
                </mxCell>
                <mxCell id="r_bpZWHaRCy2lEG5RAIA-5" value="2" style="shape=partialRectangle;html=1;whiteSpace=wrap;connectable=0;fillColor=#FFFFFF;top=0;left=0;bottom=0;right=0;overflow=hidden;pointerEvents=1;fontColor=#000000;" parent="r_bpZWHaRCy2lEG5RAIA-4" vertex="1">
                    <mxGeometry width="48" height="30" as="geometry">
                        <mxRectangle width="48" height="30" as="alternateBounds"/>
                    </mxGeometry>
                </mxCell>
                <mxCell id="r_bpZWHaRCy2lEG5RAIA-6" value="&lt;span&gt;beginning_date: date&lt;/span&gt;" style="shape=partialRectangle;html=1;whiteSpace=wrap;connectable=0;fillColor=#FFFFFF;top=0;left=0;bottom=0;right=0;align=left;spacingLeft=6;overflow=hidden;pointerEvents=1;fontColor=#000000;" parent="r_bpZWHaRCy2lEG5RAIA-4" vertex="1">
                    <mxGeometry x="48" width="173" height="30" as="geometry">
                        <mxRectangle width="173" height="30" as="alternateBounds"/>
                    </mxGeometry>
                </mxCell>
                <mxCell id="r_bpZWHaRCy2lEG5RAIA-7" value="" style="shape=partialRectangle;html=1;whiteSpace=wrap;collapsible=0;dropTarget=0;pointerEvents=1;fillColor=none;top=0;left=0;bottom=0;right=0;points=[[0,0.5],[1,0.5]];portConstraint=eastwest;fontColor=#000000;" parent="r_bpZWHaRCy2lEG5RAIA-0" vertex="1">
                    <mxGeometry y="90" width="221" height="30" as="geometry"/>
                </mxCell>
                <mxCell id="r_bpZWHaRCy2lEG5RAIA-8" value="3" style="shape=partialRectangle;html=1;whiteSpace=wrap;connectable=0;fillColor=#FFFFFF;top=0;left=0;bottom=0;right=0;overflow=hidden;pointerEvents=1;fontColor=#000000;" parent="r_bpZWHaRCy2lEG5RAIA-7" vertex="1">
                    <mxGeometry width="48" height="30" as="geometry">
                        <mxRectangle width="48" height="30" as="alternateBounds"/>
                    </mxGeometry>
                </mxCell>
                <mxCell id="r_bpZWHaRCy2lEG5RAIA-9" value="&lt;span&gt;end_date: date&lt;/span&gt;" style="shape=partialRectangle;html=1;whiteSpace=wrap;connectable=0;fillColor=#FFFFFF;top=0;left=0;bottom=0;right=0;align=left;spacingLeft=6;overflow=hidden;pointerEvents=1;fontColor=#000000;" parent="r_bpZWHaRCy2lEG5RAIA-7" vertex="1">
                    <mxGeometry x="48" width="173" height="30" as="geometry">
                        <mxRectangle width="173" height="30" as="alternateBounds"/>
                    </mxGeometry>
                </mxCell>
                <mxCell id="r_bpZWHaRCy2lEG5RAIA-10" value="" style="shape=partialRectangle;html=1;whiteSpace=wrap;collapsible=0;dropTarget=0;pointerEvents=1;fillColor=none;top=0;left=0;bottom=0;right=0;points=[[0,0.5],[1,0.5]];portConstraint=eastwest;fontColor=#000000;" parent="r_bpZWHaRCy2lEG5RAIA-0" vertex="1">
                    <mxGeometry y="120" width="221" height="30" as="geometry"/>
                </mxCell>
                <mxCell id="r_bpZWHaRCy2lEG5RAIA-11" value="4" style="shape=partialRectangle;html=1;whiteSpace=wrap;connectable=0;fillColor=#FFFFFF;top=0;left=0;bottom=0;right=0;overflow=hidden;pointerEvents=1;fontColor=#000000;" parent="r_bpZWHaRCy2lEG5RAIA-10" vertex="1">
                    <mxGeometry width="48" height="30" as="geometry">
                        <mxRectangle width="48" height="30" as="alternateBounds"/>
                    </mxGeometry>
                </mxCell>
                <mxCell id="r_bpZWHaRCy2lEG5RAIA-12" value="&lt;span&gt;fk_work_experience: int&lt;/span&gt;" style="shape=partialRectangle;html=1;whiteSpace=wrap;connectable=0;fillColor=#FFFFFF;top=0;left=0;bottom=0;right=0;align=left;spacingLeft=6;overflow=hidden;pointerEvents=1;fontColor=#000000;" parent="r_bpZWHaRCy2lEG5RAIA-10" vertex="1">
                    <mxGeometry x="48" width="173" height="30" as="geometry">
                        <mxRectangle width="173" height="30" as="alternateBounds"/>
                    </mxGeometry>
                </mxCell>
                <mxCell id="r_bpZWHaRCy2lEG5RAIA-13" value="" style="shape=partialRectangle;html=1;whiteSpace=wrap;collapsible=0;dropTarget=0;pointerEvents=1;fillColor=none;top=0;left=0;bottom=0;right=0;points=[[0,0.5],[1,0.5]];portConstraint=eastwest;fontColor=#000000;" parent="r_bpZWHaRCy2lEG5RAIA-0" vertex="1">
                    <mxGeometry y="150" width="221" height="30" as="geometry"/>
                </mxCell>
                <mxCell id="r_bpZWHaRCy2lEG5RAIA-14" value="5" style="shape=partialRectangle;html=1;whiteSpace=wrap;connectable=0;fillColor=#FFFFFF;top=0;left=0;bottom=0;right=0;overflow=hidden;pointerEvents=1;fontColor=#000000;" parent="r_bpZWHaRCy2lEG5RAIA-13" vertex="1">
                    <mxGeometry width="48" height="30" as="geometry">
                        <mxRectangle width="48" height="30" as="alternateBounds"/>
                    </mxGeometry>
                </mxCell>
                <mxCell id="r_bpZWHaRCy2lEG5RAIA-15" value="&lt;span&gt;fk_user_ID; int&lt;/span&gt;" style="shape=partialRectangle;html=1;whiteSpace=wrap;connectable=0;fillColor=#FFFFFF;top=0;left=0;bottom=0;right=0;align=left;spacingLeft=6;overflow=hidden;pointerEvents=1;fontColor=#000000;" parent="r_bpZWHaRCy2lEG5RAIA-13" vertex="1">
                    <mxGeometry x="48" width="173" height="30" as="geometry">
                        <mxRectangle width="173" height="30" as="alternateBounds"/>
                    </mxGeometry>
                </mxCell>
                <mxCell id="r_bpZWHaRCy2lEG5RAIA-16" style="edgeStyle=none;html=1;exitX=1;exitY=0.5;exitDx=0;exitDy=0;entryX=0;entryY=0.75;entryDx=0;entryDy=0;strokeColor=#000000;endArrow=ERone;endFill=0;" parent="4rfVpSqc5LY0Yn25zdl8-1" source="KNBlQUAVArYwgPWN0UJa-134" target="r_bpZWHaRCy2lEG5RAIA-0" edge="1">
                    <mxGeometry relative="1" as="geometry">
                        <Array as="points">
                            <mxPoint x="-156" y="1150"/>
                            <mxPoint x="-156" y="1335"/>
                        </Array>
                    </mxGeometry>
                </mxCell>
                <mxCell id="r_bpZWHaRCy2lEG5RAIA-17" value="current_Workplace_from_to" style="shape=table;startSize=30;container=1;collapsible=0;childLayout=tableLayout;fixedRows=1;rowLines=0;fontStyle=1;align=center;pointerEvents=1;fillColor=#d0cee2;strokeColor=#56517e;fontColor=#000000;" parent="4rfVpSqc5LY0Yn25zdl8-1" vertex="1">
                    <mxGeometry x="-132" y="1441" width="221" height="150" as="geometry"/>
                </mxCell>
                <mxCell id="r_bpZWHaRCy2lEG5RAIA-18" value="" style="shape=partialRectangle;html=1;whiteSpace=wrap;collapsible=0;dropTarget=0;pointerEvents=1;fillColor=none;top=0;left=0;bottom=1;right=0;points=[[0,0.5],[1,0.5]];portConstraint=eastwest;fontColor=#000000;" parent="r_bpZWHaRCy2lEG5RAIA-17" vertex="1">
                    <mxGeometry y="30" width="221" height="30" as="geometry"/>
                </mxCell>
                <mxCell id="r_bpZWHaRCy2lEG5RAIA-19" value="1" style="shape=partialRectangle;html=1;whiteSpace=wrap;connectable=0;fillColor=#FFFFFF;top=0;left=0;bottom=0;right=0;overflow=hidden;pointerEvents=1;fontColor=#000000;" parent="r_bpZWHaRCy2lEG5RAIA-18" vertex="1">
                    <mxGeometry width="48" height="30" as="geometry">
                        <mxRectangle width="48" height="30" as="alternateBounds"/>
                    </mxGeometry>
                </mxCell>
                <mxCell id="r_bpZWHaRCy2lEG5RAIA-20" value="current_workplace_ID: int" style="shape=partialRectangle;html=1;whiteSpace=wrap;connectable=0;fillColor=#FFFFFF;top=0;left=0;bottom=0;right=0;align=left;spacingLeft=6;overflow=hidden;pointerEvents=1;fontColor=#000000;" parent="r_bpZWHaRCy2lEG5RAIA-18" vertex="1">
                    <mxGeometry x="48" width="173" height="30" as="geometry">
                        <mxRectangle width="173" height="30" as="alternateBounds"/>
                    </mxGeometry>
                </mxCell>
                <mxCell id="r_bpZWHaRCy2lEG5RAIA-21" value="" style="shape=partialRectangle;html=1;whiteSpace=wrap;collapsible=0;dropTarget=0;pointerEvents=1;fillColor=none;top=0;left=0;bottom=0;right=0;points=[[0,0.5],[1,0.5]];portConstraint=eastwest;fontColor=#000000;" parent="r_bpZWHaRCy2lEG5RAIA-17" vertex="1">
                    <mxGeometry y="60" width="221" height="30" as="geometry"/>
                </mxCell>
                <mxCell id="r_bpZWHaRCy2lEG5RAIA-22" value="2" style="shape=partialRectangle;html=1;whiteSpace=wrap;connectable=0;fillColor=#FFFFFF;top=0;left=0;bottom=0;right=0;overflow=hidden;pointerEvents=1;fontColor=#000000;" parent="r_bpZWHaRCy2lEG5RAIA-21" vertex="1">
                    <mxGeometry width="48" height="30" as="geometry">
                        <mxRectangle width="48" height="30" as="alternateBounds"/>
                    </mxGeometry>
                </mxCell>
                <mxCell id="r_bpZWHaRCy2lEG5RAIA-23" value="&lt;span&gt;beginning_date: date&lt;/span&gt;" style="shape=partialRectangle;html=1;whiteSpace=wrap;connectable=0;fillColor=#FFFFFF;top=0;left=0;bottom=0;right=0;align=left;spacingLeft=6;overflow=hidden;pointerEvents=1;fontColor=#000000;" parent="r_bpZWHaRCy2lEG5RAIA-21" vertex="1">
                    <mxGeometry x="48" width="173" height="30" as="geometry">
                        <mxRectangle width="173" height="30" as="alternateBounds"/>
                    </mxGeometry>
                </mxCell>
                <mxCell id="r_bpZWHaRCy2lEG5RAIA-27" value="" style="shape=partialRectangle;html=1;whiteSpace=wrap;collapsible=0;dropTarget=0;pointerEvents=1;fillColor=none;top=0;left=0;bottom=0;right=0;points=[[0,0.5],[1,0.5]];portConstraint=eastwest;fontColor=#000000;" parent="r_bpZWHaRCy2lEG5RAIA-17" vertex="1">
                    <mxGeometry y="90" width="221" height="30" as="geometry"/>
                </mxCell>
                <mxCell id="r_bpZWHaRCy2lEG5RAIA-28" value="4" style="shape=partialRectangle;html=1;whiteSpace=wrap;connectable=0;fillColor=#FFFFFF;top=0;left=0;bottom=0;right=0;overflow=hidden;pointerEvents=1;fontColor=#000000;" parent="r_bpZWHaRCy2lEG5RAIA-27" vertex="1">
                    <mxGeometry width="48" height="30" as="geometry">
                        <mxRectangle width="48" height="30" as="alternateBounds"/>
                    </mxGeometry>
                </mxCell>
                <mxCell id="r_bpZWHaRCy2lEG5RAIA-29" value="&lt;span&gt;fk_work_experience: int&lt;/span&gt;" style="shape=partialRectangle;html=1;whiteSpace=wrap;connectable=0;fillColor=#FFFFFF;top=0;left=0;bottom=0;right=0;align=left;spacingLeft=6;overflow=hidden;pointerEvents=1;fontColor=#000000;" parent="r_bpZWHaRCy2lEG5RAIA-27" vertex="1">
                    <mxGeometry x="48" width="173" height="30" as="geometry">
                        <mxRectangle width="173" height="30" as="alternateBounds"/>
                    </mxGeometry>
                </mxCell>
                <mxCell id="r_bpZWHaRCy2lEG5RAIA-30" value="" style="shape=partialRectangle;html=1;whiteSpace=wrap;collapsible=0;dropTarget=0;pointerEvents=1;fillColor=none;top=0;left=0;bottom=0;right=0;points=[[0,0.5],[1,0.5]];portConstraint=eastwest;fontColor=#000000;" parent="r_bpZWHaRCy2lEG5RAIA-17" vertex="1">
                    <mxGeometry y="120" width="221" height="30" as="geometry"/>
                </mxCell>
                <mxCell id="r_bpZWHaRCy2lEG5RAIA-31" value="5" style="shape=partialRectangle;html=1;whiteSpace=wrap;connectable=0;fillColor=#FFFFFF;top=0;left=0;bottom=0;right=0;overflow=hidden;pointerEvents=1;fontColor=#000000;" parent="r_bpZWHaRCy2lEG5RAIA-30" vertex="1">
                    <mxGeometry width="48" height="30" as="geometry">
                        <mxRectangle width="48" height="30" as="alternateBounds"/>
                    </mxGeometry>
                </mxCell>
                <mxCell id="r_bpZWHaRCy2lEG5RAIA-32" value="&lt;span&gt;fk_user_ID; int&lt;/span&gt;" style="shape=partialRectangle;html=1;whiteSpace=wrap;connectable=0;fillColor=#FFFFFF;top=0;left=0;bottom=0;right=0;align=left;spacingLeft=6;overflow=hidden;pointerEvents=1;fontColor=#000000;" parent="r_bpZWHaRCy2lEG5RAIA-30" vertex="1">
                    <mxGeometry x="48" width="173" height="30" as="geometry">
                        <mxRectangle width="173" height="30" as="alternateBounds"/>
                    </mxGeometry>
                </mxCell>
                <mxCell id="r_bpZWHaRCy2lEG5RAIA-35" value="" style="edgeStyle=none;html=1;endArrow=ERoneToMany;endFill=0;strokeColor=#000000;" parent="4rfVpSqc5LY0Yn25zdl8-1" source="KNBlQUAVArYwgPWN0UJa-134" target="Ag6uyfUtwEuV5ZyT0DE5-3" edge="1">
                    <mxGeometry relative="1" as="geometry"/>
                </mxCell>
                <mxCell id="r_bpZWHaRCy2lEG5RAIA-36" style="edgeStyle=none;html=1;entryX=0;entryY=0.5;entryDx=0;entryDy=0;endArrow=ERone;endFill=0;strokeColor=#000000;" parent="4rfVpSqc5LY0Yn25zdl8-1" target="r_bpZWHaRCy2lEG5RAIA-27" edge="1">
                    <mxGeometry relative="1" as="geometry">
                        <mxPoint x="-204" y="1152" as="sourcePoint"/>
                        <Array as="points">
                            <mxPoint x="-180" y="1164"/>
                            <mxPoint x="-180" y="1368"/>
                            <mxPoint x="-180" y="1546"/>
                        </Array>
                    </mxGeometry>
                </mxCell>
                <mxCell id="LDKQARjwoA2-dpLAdaMC-30" value="Comment" style="shape=table;startSize=30;container=1;collapsible=0;childLayout=tableLayout;fixedRows=1;rowLines=0;fontStyle=1;align=center;pointerEvents=1;fillColor=#d0cee2;strokeColor=#56517e;fontColor=#000000;" parent="4rfVpSqc5LY0Yn25zdl8-1" vertex="1">
                    <mxGeometry x="-60" y="795" width="180" height="153" as="geometry"/>
                </mxCell>
                <mxCell id="LDKQARjwoA2-dpLAdaMC-31" value="" style="shape=partialRectangle;html=1;whiteSpace=wrap;collapsible=0;dropTarget=0;pointerEvents=1;fillColor=none;top=0;left=0;bottom=1;right=0;points=[[0,0.5],[1,0.5]];portConstraint=eastwest;fontColor=#000000;" parent="LDKQARjwoA2-dpLAdaMC-30" vertex="1">
                    <mxGeometry y="30" width="180" height="30" as="geometry"/>
                </mxCell>
                <mxCell id="LDKQARjwoA2-dpLAdaMC-32" value="1" style="shape=partialRectangle;html=1;whiteSpace=wrap;connectable=0;fillColor=#FFFFFF;top=0;left=0;bottom=0;right=0;overflow=hidden;pointerEvents=1;fontColor=#000000;" parent="LDKQARjwoA2-dpLAdaMC-31" vertex="1">
                    <mxGeometry width="40" height="30" as="geometry">
                        <mxRectangle width="40" height="30" as="alternateBounds"/>
                    </mxGeometry>
                </mxCell>
                <mxCell id="LDKQARjwoA2-dpLAdaMC-33" value="comments_ID: int" style="shape=partialRectangle;html=1;whiteSpace=wrap;connectable=0;fillColor=#FFFFFF;top=0;left=0;bottom=0;right=0;align=left;spacingLeft=6;overflow=hidden;pointerEvents=1;fontColor=#000000;" parent="LDKQARjwoA2-dpLAdaMC-31" vertex="1">
                    <mxGeometry x="40" width="140" height="30" as="geometry">
                        <mxRectangle width="140" height="30" as="alternateBounds"/>
                    </mxGeometry>
                </mxCell>
                <mxCell id="LDKQARjwoA2-dpLAdaMC-34" value="" style="shape=partialRectangle;html=1;whiteSpace=wrap;collapsible=0;dropTarget=0;pointerEvents=1;fillColor=none;top=0;left=0;bottom=0;right=0;points=[[0,0.5],[1,0.5]];portConstraint=eastwest;fontColor=#000000;" parent="LDKQARjwoA2-dpLAdaMC-30" vertex="1">
                    <mxGeometry y="60" width="180" height="30" as="geometry"/>
                </mxCell>
                <mxCell id="LDKQARjwoA2-dpLAdaMC-35" value="2" style="shape=partialRectangle;html=1;whiteSpace=wrap;connectable=0;fillColor=#FFFFFF;top=0;left=0;bottom=0;right=0;overflow=hidden;pointerEvents=1;fontColor=#000000;" parent="LDKQARjwoA2-dpLAdaMC-34" vertex="1">
                    <mxGeometry width="40" height="30" as="geometry">
                        <mxRectangle width="40" height="30" as="alternateBounds"/>
                    </mxGeometry>
                </mxCell>
                <mxCell id="LDKQARjwoA2-dpLAdaMC-36" value="fk_post_ID: int" style="shape=partialRectangle;html=1;whiteSpace=wrap;connectable=0;fillColor=#FFFFFF;top=0;left=0;bottom=0;right=0;align=left;spacingLeft=6;overflow=hidden;pointerEvents=1;fontColor=#000000;" parent="LDKQARjwoA2-dpLAdaMC-34" vertex="1">
                    <mxGeometry x="40" width="140" height="30" as="geometry">
                        <mxRectangle width="140" height="30" as="alternateBounds"/>
                    </mxGeometry>
                </mxCell>
                <mxCell id="LDKQARjwoA2-dpLAdaMC-83" value="" style="shape=partialRectangle;html=1;whiteSpace=wrap;collapsible=0;dropTarget=0;pointerEvents=1;fillColor=none;top=0;left=0;bottom=0;right=0;points=[[0,0.5],[1,0.5]];portConstraint=eastwest;fontColor=#000000;" parent="LDKQARjwoA2-dpLAdaMC-30" vertex="1">
                    <mxGeometry y="90" width="180" height="30" as="geometry"/>
                </mxCell>
                <mxCell id="LDKQARjwoA2-dpLAdaMC-84" value="3" style="shape=partialRectangle;html=1;whiteSpace=wrap;connectable=0;fillColor=#FFFFFF;top=0;left=0;bottom=0;right=0;overflow=hidden;pointerEvents=1;fontColor=#000000;" parent="LDKQARjwoA2-dpLAdaMC-83" vertex="1">
                    <mxGeometry width="40" height="30" as="geometry">
                        <mxRectangle width="40" height="30" as="alternateBounds"/>
                    </mxGeometry>
                </mxCell>
                <mxCell id="LDKQARjwoA2-dpLAdaMC-85" value="comment_text: varchar" style="shape=partialRectangle;html=1;whiteSpace=wrap;connectable=0;fillColor=#FFFFFF;top=0;left=0;bottom=0;right=0;align=left;spacingLeft=6;overflow=hidden;pointerEvents=1;fontColor=#000000;" parent="LDKQARjwoA2-dpLAdaMC-83" vertex="1">
                    <mxGeometry x="40" width="140" height="30" as="geometry">
                        <mxRectangle width="140" height="30" as="alternateBounds"/>
                    </mxGeometry>
                </mxCell>
                <mxCell id="r_bpZWHaRCy2lEG5RAIA-44" value="" style="shape=partialRectangle;html=1;whiteSpace=wrap;collapsible=0;dropTarget=0;pointerEvents=1;fillColor=none;top=0;left=0;bottom=0;right=0;points=[[0,0.5],[1,0.5]];portConstraint=eastwest;fontColor=#000000;" parent="LDKQARjwoA2-dpLAdaMC-30" vertex="1">
                    <mxGeometry y="120" width="180" height="30" as="geometry"/>
                </mxCell>
                <mxCell id="r_bpZWHaRCy2lEG5RAIA-45" value="4" style="shape=partialRectangle;html=1;whiteSpace=wrap;connectable=0;fillColor=#FFFFFF;top=0;left=0;bottom=0;right=0;overflow=hidden;pointerEvents=1;fontColor=#000000;" parent="r_bpZWHaRCy2lEG5RAIA-44" vertex="1">
                    <mxGeometry width="40" height="30" as="geometry">
                        <mxRectangle width="40" height="30" as="alternateBounds"/>
                    </mxGeometry>
                </mxCell>
                <mxCell id="r_bpZWHaRCy2lEG5RAIA-46" value="level: enum('1','2')" style="shape=partialRectangle;html=1;whiteSpace=wrap;connectable=0;fillColor=#FFFFFF;top=0;left=0;bottom=0;right=0;align=left;spacingLeft=6;overflow=hidden;pointerEvents=1;fontColor=#000000;" parent="r_bpZWHaRCy2lEG5RAIA-44" vertex="1">
                    <mxGeometry x="40" width="140" height="30" as="geometry">
                        <mxRectangle width="140" height="30" as="alternateBounds"/>
                    </mxGeometry>
                </mxCell>
                <mxCell id="r_bpZWHaRCy2lEG5RAIA-56" value="Profile" style="shape=table;startSize=30;container=1;collapsible=0;childLayout=tableLayout;fixedRows=1;rowLines=0;fontStyle=1;align=center;pointerEvents=1;fillColor=#d0cee2;strokeColor=#56517e;fontColor=#000000;" parent="4rfVpSqc5LY0Yn25zdl8-1" vertex="1">
                    <mxGeometry x="-684" y="1380" width="192" height="90" as="geometry"/>
                </mxCell>
                <mxCell id="r_bpZWHaRCy2lEG5RAIA-57" value="" style="shape=partialRectangle;html=1;whiteSpace=wrap;collapsible=0;dropTarget=0;pointerEvents=1;fillColor=none;top=0;left=0;bottom=1;right=0;points=[[0,0.5],[1,0.5]];portConstraint=eastwest;fontColor=#000000;" parent="r_bpZWHaRCy2lEG5RAIA-56" vertex="1">
                    <mxGeometry y="30" width="192" height="30" as="geometry"/>
                </mxCell>
                <mxCell id="r_bpZWHaRCy2lEG5RAIA-58" value="1" style="shape=partialRectangle;html=1;whiteSpace=wrap;connectable=0;fillColor=#FFFFFF;top=0;left=0;bottom=0;right=0;overflow=hidden;pointerEvents=1;fontColor=#000000;" parent="r_bpZWHaRCy2lEG5RAIA-57" vertex="1">
                    <mxGeometry width="42" height="30" as="geometry">
                        <mxRectangle width="42" height="30" as="alternateBounds"/>
                    </mxGeometry>
                </mxCell>
                <mxCell id="r_bpZWHaRCy2lEG5RAIA-59" value="profile_ID: int" style="shape=partialRectangle;html=1;whiteSpace=wrap;connectable=0;fillColor=#FFFFFF;top=0;left=0;bottom=0;right=0;align=left;spacingLeft=6;overflow=hidden;pointerEvents=1;fontColor=#000000;" parent="r_bpZWHaRCy2lEG5RAIA-57" vertex="1">
                    <mxGeometry x="42" width="150" height="30" as="geometry">
                        <mxRectangle width="150" height="30" as="alternateBounds"/>
                    </mxGeometry>
                </mxCell>
                <mxCell id="r_bpZWHaRCy2lEG5RAIA-60" value="" style="shape=partialRectangle;html=1;whiteSpace=wrap;collapsible=0;dropTarget=0;pointerEvents=1;fillColor=none;top=0;left=0;bottom=0;right=0;points=[[0,0.5],[1,0.5]];portConstraint=eastwest;fontColor=#000000;" parent="r_bpZWHaRCy2lEG5RAIA-56" vertex="1">
                    <mxGeometry y="60" width="192" height="30" as="geometry"/>
                </mxCell>
                <mxCell id="r_bpZWHaRCy2lEG5RAIA-61" value="2" style="shape=partialRectangle;html=1;whiteSpace=wrap;connectable=0;fillColor=#FFFFFF;top=0;left=0;bottom=0;right=0;overflow=hidden;pointerEvents=1;fontColor=#000000;" parent="r_bpZWHaRCy2lEG5RAIA-60" vertex="1">
                    <mxGeometry width="42" height="30" as="geometry">
                        <mxRectangle width="42" height="30" as="alternateBounds"/>
                    </mxGeometry>
                </mxCell>
                <mxCell id="r_bpZWHaRCy2lEG5RAIA-62" value="&lt;span&gt;bio: text&lt;/span&gt;" style="shape=partialRectangle;html=1;whiteSpace=wrap;connectable=0;fillColor=#FFFFFF;top=0;left=0;bottom=0;right=0;align=left;spacingLeft=6;overflow=hidden;pointerEvents=1;fontColor=#000000;" parent="r_bpZWHaRCy2lEG5RAIA-60" vertex="1">
                    <mxGeometry x="42" width="150" height="30" as="geometry">
                        <mxRectangle width="150" height="30" as="alternateBounds"/>
                    </mxGeometry>
                </mxCell>
                <mxCell id="r_bpZWHaRCy2lEG5RAIA-66" style="edgeStyle=none;html=1;entryX=0;entryY=0.5;entryDx=0;entryDy=0;startArrow=ERone;startFill=0;endArrow=ERone;endFill=0;strokeColor=#000000;" parent="4rfVpSqc5LY0Yn25zdl8-1" source="KNBlQUAVArYwgPWN0UJa-124" target="r_bpZWHaRCy2lEG5RAIA-56" edge="1">
                    <mxGeometry relative="1" as="geometry">
                        <Array as="points">
                            <mxPoint x="-744" y="1251"/>
                            <mxPoint x="-744" y="1272"/>
                            <mxPoint x="-744" y="1425"/>
                        </Array>
                    </mxGeometry>
                </mxCell>
                <mxCell id="r_bpZWHaRCy2lEG5RAIA-67" value="school" style="shape=table;startSize=30;container=1;collapsible=0;childLayout=tableLayout;fixedRows=1;rowLines=0;fontStyle=1;align=center;pointerEvents=1;fillColor=#d0cee2;strokeColor=#56517e;fontColor=#000000;" parent="4rfVpSqc5LY0Yn25zdl8-1" vertex="1">
                    <mxGeometry x="-432" y="1457.5" width="228" height="150" as="geometry"/>
                </mxCell>
                <mxCell id="r_bpZWHaRCy2lEG5RAIA-68" value="" style="shape=partialRectangle;html=1;whiteSpace=wrap;collapsible=0;dropTarget=0;pointerEvents=1;fillColor=none;top=0;left=0;bottom=1;right=0;points=[[0,0.5],[1,0.5]];portConstraint=eastwest;fontColor=#000000;" parent="r_bpZWHaRCy2lEG5RAIA-67" vertex="1">
                    <mxGeometry y="30" width="228" height="30" as="geometry"/>
                </mxCell>
                <mxCell id="r_bpZWHaRCy2lEG5RAIA-69" value="1" style="shape=partialRectangle;html=1;whiteSpace=wrap;connectable=0;fillColor=#FFFFFF;top=0;left=0;bottom=0;right=0;overflow=hidden;pointerEvents=1;fontColor=#000000;" parent="r_bpZWHaRCy2lEG5RAIA-68" vertex="1">
                    <mxGeometry width="49" height="30" as="geometry">
                        <mxRectangle width="49" height="30" as="alternateBounds"/>
                    </mxGeometry>
                </mxCell>
                <mxCell id="r_bpZWHaRCy2lEG5RAIA-70" value="schol_ID: int" style="shape=partialRectangle;html=1;whiteSpace=wrap;connectable=0;fillColor=#FFFFFF;top=0;left=0;bottom=0;right=0;align=left;spacingLeft=6;overflow=hidden;pointerEvents=1;fontColor=#000000;" parent="r_bpZWHaRCy2lEG5RAIA-68" vertex="1">
                    <mxGeometry x="49" width="179" height="30" as="geometry">
                        <mxRectangle width="179" height="30" as="alternateBounds"/>
                    </mxGeometry>
                </mxCell>
                <mxCell id="r_bpZWHaRCy2lEG5RAIA-71" value="" style="shape=partialRectangle;html=1;whiteSpace=wrap;collapsible=0;dropTarget=0;pointerEvents=1;fillColor=none;top=0;left=0;bottom=0;right=0;points=[[0,0.5],[1,0.5]];portConstraint=eastwest;fontColor=#000000;" parent="r_bpZWHaRCy2lEG5RAIA-67" vertex="1">
                    <mxGeometry y="60" width="228" height="30" as="geometry"/>
                </mxCell>
                <mxCell id="r_bpZWHaRCy2lEG5RAIA-72" value="2" style="shape=partialRectangle;html=1;whiteSpace=wrap;connectable=0;fillColor=#FFFFFF;top=0;left=0;bottom=0;right=0;overflow=hidden;pointerEvents=1;fontColor=#000000;" parent="r_bpZWHaRCy2lEG5RAIA-71" vertex="1">
                    <mxGeometry width="49" height="30" as="geometry">
                        <mxRectangle width="49" height="30" as="alternateBounds"/>
                    </mxGeometry>
                </mxCell>
                <mxCell id="r_bpZWHaRCy2lEG5RAIA-73" value="fk_education_ID: int" style="shape=partialRectangle;html=1;whiteSpace=wrap;connectable=0;fillColor=#FFFFFF;top=0;left=0;bottom=0;right=0;align=left;spacingLeft=6;overflow=hidden;pointerEvents=1;fontColor=#000000;" parent="r_bpZWHaRCy2lEG5RAIA-71" vertex="1">
                    <mxGeometry x="49" width="179" height="30" as="geometry">
                        <mxRectangle width="179" height="30" as="alternateBounds"/>
                    </mxGeometry>
                </mxCell>
                <mxCell id="r_bpZWHaRCy2lEG5RAIA-74" value="" style="shape=partialRectangle;html=1;whiteSpace=wrap;collapsible=0;dropTarget=0;pointerEvents=1;fillColor=none;top=0;left=0;bottom=0;right=0;points=[[0,0.5],[1,0.5]];portConstraint=eastwest;fontColor=#000000;" parent="r_bpZWHaRCy2lEG5RAIA-67" vertex="1">
                    <mxGeometry y="90" width="228" height="30" as="geometry"/>
                </mxCell>
                <mxCell id="r_bpZWHaRCy2lEG5RAIA-75" value="3" style="shape=partialRectangle;html=1;whiteSpace=wrap;connectable=0;fillColor=#FFFFFF;top=0;left=0;bottom=0;right=0;overflow=hidden;pointerEvents=1;fontColor=#000000;" parent="r_bpZWHaRCy2lEG5RAIA-74" vertex="1">
                    <mxGeometry width="49" height="30" as="geometry">
                        <mxRectangle width="49" height="30" as="alternateBounds"/>
                    </mxGeometry>
                </mxCell>
                <mxCell id="r_bpZWHaRCy2lEG5RAIA-76" value="beginning_date: date" style="shape=partialRectangle;html=1;whiteSpace=wrap;connectable=0;fillColor=#FFFFFF;top=0;left=0;bottom=0;right=0;align=left;spacingLeft=6;overflow=hidden;pointerEvents=1;fontColor=#000000;" parent="r_bpZWHaRCy2lEG5RAIA-74" vertex="1">
                    <mxGeometry x="49" width="179" height="30" as="geometry">
                        <mxRectangle width="179" height="30" as="alternateBounds"/>
                    </mxGeometry>
                </mxCell>
                <mxCell id="r_bpZWHaRCy2lEG5RAIA-77" value="" style="shape=partialRectangle;html=1;whiteSpace=wrap;collapsible=0;dropTarget=0;pointerEvents=1;fillColor=none;top=0;left=0;bottom=1;right=0;points=[[0,0.5],[1,0.5]];portConstraint=eastwest;fontColor=#000000;" parent="r_bpZWHaRCy2lEG5RAIA-67" vertex="1">
                    <mxGeometry y="120" width="228" height="30" as="geometry"/>
                </mxCell>
                <mxCell id="r_bpZWHaRCy2lEG5RAIA-78" value="4" style="shape=partialRectangle;html=1;whiteSpace=wrap;connectable=0;fillColor=#FFFFFF;top=0;left=0;bottom=0;right=0;overflow=hidden;pointerEvents=1;fontColor=#000000;" parent="r_bpZWHaRCy2lEG5RAIA-77" vertex="1">
                    <mxGeometry width="49" height="30" as="geometry">
                        <mxRectangle width="49" height="30" as="alternateBounds"/>
                    </mxGeometry>
                </mxCell>
                <mxCell id="r_bpZWHaRCy2lEG5RAIA-79" value="end_date: date" style="shape=partialRectangle;html=1;whiteSpace=wrap;connectable=0;fillColor=#FFFFFF;top=0;left=0;bottom=0;right=0;align=left;spacingLeft=6;overflow=hidden;pointerEvents=1;fontColor=#000000;" parent="r_bpZWHaRCy2lEG5RAIA-77" vertex="1">
                    <mxGeometry x="49" width="179" height="30" as="geometry">
                        <mxRectangle width="179" height="30" as="alternateBounds"/>
                    </mxGeometry>
                </mxCell>
                <mxCell id="r_bpZWHaRCy2lEG5RAIA-80" style="edgeStyle=none;html=1;exitX=0;exitY=0.5;exitDx=0;exitDy=0;startArrow=ERone;startFill=0;endArrow=ERone;endFill=0;strokeColor=#000000;entryX=-0.023;entryY=0.25;entryDx=0;entryDy=0;entryPerimeter=0;" parent="4rfVpSqc5LY0Yn25zdl8-1" source="KNBlQUAVArYwgPWN0UJa-147" target="r_bpZWHaRCy2lEG5RAIA-71" edge="1">
                    <mxGeometry relative="1" as="geometry">
                        <mxPoint x="-443.9999999999998" y="1524.0000000000002" as="targetPoint"/>
                        <Array as="points">
                            <mxPoint x="-456" y="1324"/>
                            <mxPoint x="-456" y="1526"/>
                        </Array>
                    </mxGeometry>
                </mxCell>
                <mxCell id="r_bpZWHaRCy2lEG5RAIA-81" value="University" style="shape=table;startSize=30;container=1;collapsible=0;childLayout=tableLayout;fixedRows=1;rowLines=0;fontStyle=1;align=center;pointerEvents=1;fillColor=#d0cee2;strokeColor=#56517e;fontColor=#000000;" parent="4rfVpSqc5LY0Yn25zdl8-1" vertex="1">
                    <mxGeometry x="-425" y="1632" width="228" height="150" as="geometry"/>
                </mxCell>
                <mxCell id="r_bpZWHaRCy2lEG5RAIA-82" value="" style="shape=partialRectangle;html=1;whiteSpace=wrap;collapsible=0;dropTarget=0;pointerEvents=1;fillColor=none;top=0;left=0;bottom=1;right=0;points=[[0,0.5],[1,0.5]];portConstraint=eastwest;fontColor=#000000;" parent="r_bpZWHaRCy2lEG5RAIA-81" vertex="1">
                    <mxGeometry y="30" width="228" height="30" as="geometry"/>
                </mxCell>
                <mxCell id="r_bpZWHaRCy2lEG5RAIA-83" value="1" style="shape=partialRectangle;html=1;whiteSpace=wrap;connectable=0;fillColor=#FFFFFF;top=0;left=0;bottom=0;right=0;overflow=hidden;pointerEvents=1;fontColor=#000000;" parent="r_bpZWHaRCy2lEG5RAIA-82" vertex="1">
                    <mxGeometry width="49" height="30" as="geometry">
                        <mxRectangle width="49" height="30" as="alternateBounds"/>
                    </mxGeometry>
                </mxCell>
                <mxCell id="r_bpZWHaRCy2lEG5RAIA-84" value="university_ID: int" style="shape=partialRectangle;html=1;whiteSpace=wrap;connectable=0;fillColor=#FFFFFF;top=0;left=0;bottom=0;right=0;align=left;spacingLeft=6;overflow=hidden;pointerEvents=1;fontColor=#000000;" parent="r_bpZWHaRCy2lEG5RAIA-82" vertex="1">
                    <mxGeometry x="49" width="179" height="30" as="geometry">
                        <mxRectangle width="179" height="30" as="alternateBounds"/>
                    </mxGeometry>
                </mxCell>
                <mxCell id="r_bpZWHaRCy2lEG5RAIA-85" value="" style="shape=partialRectangle;html=1;whiteSpace=wrap;collapsible=0;dropTarget=0;pointerEvents=1;fillColor=none;top=0;left=0;bottom=0;right=0;points=[[0,0.5],[1,0.5]];portConstraint=eastwest;fontColor=#000000;" parent="r_bpZWHaRCy2lEG5RAIA-81" vertex="1">
                    <mxGeometry y="60" width="228" height="30" as="geometry"/>
                </mxCell>
                <mxCell id="r_bpZWHaRCy2lEG5RAIA-86" value="2" style="shape=partialRectangle;html=1;whiteSpace=wrap;connectable=0;fillColor=#FFFFFF;top=0;left=0;bottom=0;right=0;overflow=hidden;pointerEvents=1;fontColor=#000000;" parent="r_bpZWHaRCy2lEG5RAIA-85" vertex="1">
                    <mxGeometry width="49" height="30" as="geometry">
                        <mxRectangle width="49" height="30" as="alternateBounds"/>
                    </mxGeometry>
                </mxCell>
                <mxCell id="r_bpZWHaRCy2lEG5RAIA-87" value="fk_education_ID: int" style="shape=partialRectangle;html=1;whiteSpace=wrap;connectable=0;fillColor=#FFFFFF;top=0;left=0;bottom=0;right=0;align=left;spacingLeft=6;overflow=hidden;pointerEvents=1;fontColor=#000000;" parent="r_bpZWHaRCy2lEG5RAIA-85" vertex="1">
                    <mxGeometry x="49" width="179" height="30" as="geometry">
                        <mxRectangle width="179" height="30" as="alternateBounds"/>
                    </mxGeometry>
                </mxCell>
                <mxCell id="r_bpZWHaRCy2lEG5RAIA-88" value="" style="shape=partialRectangle;html=1;whiteSpace=wrap;collapsible=0;dropTarget=0;pointerEvents=1;fillColor=none;top=0;left=0;bottom=0;right=0;points=[[0,0.5],[1,0.5]];portConstraint=eastwest;fontColor=#000000;" parent="r_bpZWHaRCy2lEG5RAIA-81" vertex="1">
                    <mxGeometry y="90" width="228" height="30" as="geometry"/>
                </mxCell>
                <mxCell id="r_bpZWHaRCy2lEG5RAIA-89" value="3" style="shape=partialRectangle;html=1;whiteSpace=wrap;connectable=0;fillColor=#FFFFFF;top=0;left=0;bottom=0;right=0;overflow=hidden;pointerEvents=1;fontColor=#000000;" parent="r_bpZWHaRCy2lEG5RAIA-88" vertex="1">
                    <mxGeometry width="49" height="30" as="geometry">
                        <mxRectangle width="49" height="30" as="alternateBounds"/>
                    </mxGeometry>
                </mxCell>
                <mxCell id="r_bpZWHaRCy2lEG5RAIA-90" value="beginning_date: date" style="shape=partialRectangle;html=1;whiteSpace=wrap;connectable=0;fillColor=#FFFFFF;top=0;left=0;bottom=0;right=0;align=left;spacingLeft=6;overflow=hidden;pointerEvents=1;fontColor=#000000;" parent="r_bpZWHaRCy2lEG5RAIA-88" vertex="1">
                    <mxGeometry x="49" width="179" height="30" as="geometry">
                        <mxRectangle width="179" height="30" as="alternateBounds"/>
                    </mxGeometry>
                </mxCell>
                <mxCell id="r_bpZWHaRCy2lEG5RAIA-91" value="" style="shape=partialRectangle;html=1;whiteSpace=wrap;collapsible=0;dropTarget=0;pointerEvents=1;fillColor=none;top=0;left=0;bottom=1;right=0;points=[[0,0.5],[1,0.5]];portConstraint=eastwest;fontColor=#000000;" parent="r_bpZWHaRCy2lEG5RAIA-81" vertex="1">
                    <mxGeometry y="120" width="228" height="30" as="geometry"/>
                </mxCell>
                <mxCell id="r_bpZWHaRCy2lEG5RAIA-92" value="4" style="shape=partialRectangle;html=1;whiteSpace=wrap;connectable=0;fillColor=#FFFFFF;top=0;left=0;bottom=0;right=0;overflow=hidden;pointerEvents=1;fontColor=#000000;" parent="r_bpZWHaRCy2lEG5RAIA-91" vertex="1">
                    <mxGeometry width="49" height="30" as="geometry">
                        <mxRectangle width="49" height="30" as="alternateBounds"/>
                    </mxGeometry>
                </mxCell>
                <mxCell id="r_bpZWHaRCy2lEG5RAIA-93" value="end_date: date" style="shape=partialRectangle;html=1;whiteSpace=wrap;connectable=0;fillColor=#FFFFFF;top=0;left=0;bottom=0;right=0;align=left;spacingLeft=6;overflow=hidden;pointerEvents=1;fontColor=#000000;" parent="r_bpZWHaRCy2lEG5RAIA-91" vertex="1">
                    <mxGeometry x="49" width="179" height="30" as="geometry">
                        <mxRectangle width="179" height="30" as="alternateBounds"/>
                    </mxGeometry>
                </mxCell>
                <mxCell id="r_bpZWHaRCy2lEG5RAIA-94" style="edgeStyle=none;html=1;startArrow=none;startFill=0;endArrow=ERone;endFill=0;strokeColor=#000000;exitX=1;exitY=0.5;exitDx=0;exitDy=0;entryX=1;entryY=0.5;entryDx=0;entryDy=0;" parent="4rfVpSqc5LY0Yn25zdl8-1" source="KNBlQUAVArYwgPWN0UJa-147" target="r_bpZWHaRCy2lEG5RAIA-85" edge="1">
                    <mxGeometry relative="1" as="geometry">
                        <mxPoint x="-156" y="1716" as="targetPoint"/>
                        <mxPoint x="-204" y="1324" as="sourcePoint"/>
                        <Array as="points">
                            <mxPoint x="-168" y="1324"/>
                            <mxPoint x="-168" y="1512"/>
                            <mxPoint x="-168" y="1707"/>
                        </Array>
                    </mxGeometry>
                </mxCell>
            </root>
        </mxGraphModel>
    </diagram>
</mxfile>